<?xml version="1.0" encoding="UTF-8" standalone="no"?>
<!-- Created with Inkscape (http://www.inkscape.org/) -->

<svg
   xmlns:dc="http://purl.org/dc/elements/1.1/"
   xmlns:cc="http://creativecommons.org/ns#"
   xmlns:rdf="http://www.w3.org/1999/02/22-rdf-syntax-ns#"
   xmlns:svg="http://www.w3.org/2000/svg"
   xmlns="http://www.w3.org/2000/svg"
   xmlns:sodipodi="http://sodipodi.sourceforge.net/DTD/sodipodi-0.dtd"
   xmlns:inkscape="http://www.inkscape.org/namespaces/inkscape"
   width="210mm"
   height="297mm"
   viewBox="0 0 744.09448819 1052.3622047"
   id="svg2"
   version="1.1"
   inkscape:version="0.91 r13725"
   sodipodi:docname="ue2_stab_eigengewicht.svg">
  <sodipodi:namedview
     id="base"
     pagecolor="#ffffff"
     bordercolor="#666666"
     borderopacity="1.0"
     inkscape:pageopacity="0.0"
     inkscape:pageshadow="2"
     inkscape:zoom="1"
     inkscape:cx="106.52949"
     inkscape:cy="760"
     inkscape:document-units="px"
     inkscape:current-layer="layer1"
     showgrid="false"
     inkscape:window-width="1920"
     inkscape:window-height="1021"
     inkscape:window-x="1680"
     inkscape:window-y="0"
     inkscape:window-maximized="1" />
  <defs
     id="defs4">
    <marker
       inkscape:isstock="true"
       inkscape:stockid="DistanceEnd"
       orient="auto"
       refY="0.0"
       refX="0.0"
       id="DistanceEnd"
       style="overflow:visible">
      <g
         style="stroke:#000000;stroke-opacity:1;fill:#000000;fill-opacity:1"
         id="g2301">
        <path
           id="path2316"
           d="M 0,0 L -2,0"
           style="fill:#000000;stroke:#000000;stroke-width:1.15;stroke-linecap:square;stroke-opacity:1;fill-opacity:1" />
        <path
           id="path2312"
           d="M 0,0 L -13,4 L -9,0 -13,-4 L 0,0 z "
           style="fill:#000000;fill-rule:evenodd;stroke:#000000;stroke-opacity:1;fill-opacity:1" />
        <path
           id="path2314"
           d="M 0,-4 L 0,40"
           style="fill:#000000;stroke:#000000;stroke-width:1;stroke-linecap:square;stroke-opacity:1;fill-opacity:1" />
      </g>
    </marker>
    <marker
       inkscape:isstock="true"
       inkscape:stockid="DistanceStart"
       orient="auto"
       refY="0.0"
       refX="0.0"
       id="DistanceStart"
       style="overflow:visible">
      <g
         style="stroke:#000000;stroke-opacity:1;fill:#000000;fill-opacity:1"
         id="g2300">
        <path
           id="path2306"
           d="M 0,0 L 2,0"
           style="fill:#000000;stroke:#000000;stroke-width:1.15;stroke-linecap:square;stroke-opacity:1;fill-opacity:1" />
        <path
           id="path2302"
           d="M 0,0 L 13,4 L 9,0 13,-4 L 0,0 z "
           style="fill:#000000;fill-rule:evenodd;stroke:#000000;stroke-opacity:1;fill-opacity:1" />
        <path
           id="path2304"
           d="M 0,-4 L 0,40"
           style="fill:#000000;stroke:#000000;stroke-width:1;stroke-linecap:square;stroke-opacity:1;fill-opacity:1" />
      </g>
    </marker>
    <marker
       inkscape:isstock="true"
       style="overflow:visible"
       id="TriangleOutM"
       refX="0.0"
       refY="0.0"
       orient="auto"
       inkscape:stockid="TriangleOutM">
      <path
         transform="scale(0.4)"
         style="fill-rule:evenodd;stroke:#000000;stroke-width:1pt;stroke-opacity:1;fill:#000000;fill-opacity:1"
         d="M 5.77,0.0 L -2.88,5.0 L -2.88,-5.0 L 5.77,0.0 z "
         id="path4287" />
    </marker>
    <marker
       inkscape:isstock="true"
       style="overflow:visible;"
       id="Arrow2Mend"
       refX="0.0"
       refY="0.0"
       orient="auto"
       inkscape:stockid="Arrow2Mend">
      <path
         transform="scale(0.6) rotate(180) translate(0,0)"
         d="M 8.7185878,4.0337352 L -2.2072895,0.016013256 L 8.7185884,-4.0017078 C 6.9730900,-1.6296469 6.9831476,1.6157441 8.7185878,4.0337352 z "
         style="fill-rule:evenodd;stroke-width:0.625;stroke-linejoin:round;stroke:#000000;stroke-opacity:1;fill:#000000;fill-opacity:1"
         id="path4169" />
    </marker>
    <marker
       inkscape:isstock="true"
       style="overflow:visible;"
       id="Arrow1Send"
       refX="0.0"
       refY="0.0"
       orient="auto"
       inkscape:stockid="Arrow1Send">
      <path
         transform="scale(0.2) rotate(180) translate(6,0)"
         style="fill-rule:evenodd;stroke:#000000;stroke-width:1pt;stroke-opacity:1;fill:#000000;fill-opacity:1"
         d="M 0.0,0.0 L 5.0,-5.0 L -12.5,0.0 L 5.0,5.0 L 0.0,0.0 z "
         id="path4157" />
    </marker>
    <marker
       inkscape:isstock="true"
       style="overflow:visible;"
       id="Arrow1Mend"
       refX="0.0"
       refY="0.0"
       orient="auto"
       inkscape:stockid="Arrow1Mend">
      <path
         transform="scale(0.4) rotate(180) translate(10,0)"
         style="fill-rule:evenodd;stroke:#000000;stroke-width:1pt;stroke-opacity:1;fill:#000000;fill-opacity:1"
         d="M 0.0,0.0 L 5.0,-5.0 L -12.5,0.0 L 5.0,5.0 L 0.0,0.0 z "
         id="path4151" />
    </marker>
    <marker
       inkscape:isstock="true"
       style="overflow:visible;"
       id="Arrow1Lend"
       refX="0.0"
       refY="0.0"
       orient="auto"
       inkscape:stockid="Arrow1Lend">
      <path
         transform="scale(0.8) rotate(180) translate(12.5,0)"
         style="fill-rule:evenodd;stroke:#000000;stroke-width:1pt;stroke-opacity:1;fill:#000000;fill-opacity:1"
         d="M 0.0,0.0 L 5.0,-5.0 L -12.5,0.0 L 5.0,5.0 L 0.0,0.0 z "
         id="path4145" />
    </marker>
    <marker
       inkscape:stockid="Arrow2Lend"
       orient="auto"
       refY="0.0"
       refX="0.0"
       id="marker4515"
       style="overflow:visible;"
       inkscape:isstock="true">
      <path
         id="path4517"
         style="fill-rule:evenodd;stroke-width:0.625;stroke-linejoin:round;stroke:#000000;stroke-opacity:1;fill:#000000;fill-opacity:1"
         d="M 8.7185878,4.0337352 L -2.2072895,0.016013256 L 8.7185884,-4.0017078 C 6.9730900,-1.6296469 6.9831476,1.6157441 8.7185878,4.0337352 z "
         transform="scale(1.1) rotate(180) translate(1,0)" />
    </marker>
    <marker
       inkscape:collect="always"
       inkscape:isstock="true"
       style="overflow:visible;"
       id="Arrow2Lend"
       refX="0.0"
       refY="0.0"
       orient="auto"
       inkscape:stockid="Arrow2Lend">
      <path
         transform="scale(1.1) rotate(180) translate(1,0)"
         d="M 8.7185878,4.0337352 L -2.2072895,0.016013256 L 8.7185884,-4.0017078 C 6.9730900,-1.6296469 6.9831476,1.6157441 8.7185878,4.0337352 z "
         style="fill-rule:evenodd;stroke-width:0.625;stroke-linejoin:round;stroke:#000000;stroke-opacity:1;fill:#000000;fill-opacity:1"
         id="path4163" />
    </marker>
    <marker
       inkscape:isstock="true"
       style="overflow:visible"
       id="Arrow1Lstart"
       refX="0.0"
       refY="0.0"
       orient="auto"
       inkscape:stockid="Arrow1Lstart">
      <path
         transform="scale(0.8) translate(12.5,0)"
         style="fill-rule:evenodd;stroke:#000000;stroke-width:1pt;stroke-opacity:1;fill:#000000;fill-opacity:1"
         d="M 0.0,0.0 L 5.0,-5.0 L -12.5,0.0 L 5.0,5.0 L 0.0,0.0 z "
         id="path4142" />
    </marker>
  </defs>
  <metadata
     id="metadata7">
    <rdf:RDF>
      <cc:Work
         rdf:about="">
        <dc:format>image/svg+xml</dc:format>
        <dc:type
           rdf:resource="http://purl.org/dc/dcmitype/StillImage" />
        <dc:title />
      </cc:Work>
    </rdf:RDF>
  </metadata>
  <g
     id="layer1"
     inkscape:groupmode="layer"
     inkscape:label="Ebene 1">
    <path
       inkscape:connector-curvature="0"
       id="path4136"
       d="M 357,43.362205 357,242.3622"
       style="fill:none;fill-rule:evenodd;stroke:#000000;stroke-width:3;stroke-linecap:butt;stroke-linejoin:miter;stroke-opacity:1;stroke-miterlimit:4;stroke-dasharray:none" />
    <path
       inkscape:connector-curvature="0"
       id="path4432"
       d="m 386,64.362205 0,38.999995"
       style="fill:none;fill-rule:evenodd;stroke:#000000;stroke-width:1px;stroke-linecap:butt;stroke-linejoin:miter;stroke-opacity:1;marker-end:url(#Arrow2Lend)" />
    <path
       inkscape:connector-curvature="0"
       id="path4482"
       d="m 345,241.3622 25,0"
       style="fill:none;fill-rule:evenodd;stroke:#000000;stroke-width:1px;stroke-linecap:butt;stroke-linejoin:miter;stroke-opacity:1" />
    <path
       inkscape:connector-curvature="0"
       id="path4484"
       d="m 350.5,241.8622 -8,8"
       style="fill:none;fill-rule:evenodd;stroke:#000000;stroke-width:1px;stroke-linecap:butt;stroke-linejoin:miter;stroke-opacity:1" />
    <path
       inkscape:transform-center-y="4"
       inkscape:transform-center-x="-17"
       inkscape:connector-curvature="0"
       id="path4484-3"
       d="m 357.5,242.3622 -8,8"
       style="fill:none;fill-rule:evenodd;stroke:#000000;stroke-width:1px;stroke-linecap:butt;stroke-linejoin:miter;stroke-opacity:1" />
    <path
       inkscape:transform-center-y="4"
       inkscape:transform-center-x="-13"
       inkscape:connector-curvature="0"
       id="path4484-6"
       d="m 365,241.8622 -8,8"
       style="fill:none;fill-rule:evenodd;stroke:#000000;stroke-width:1px;stroke-linecap:butt;stroke-linejoin:miter;stroke-opacity:1" />
    <path
       inkscape:connector-curvature="0"
       id="path4507"
       d="m 357,240.3622 0,-36"
       style="fill:none;fill-rule:evenodd;stroke:#000000;stroke-width:1;stroke-linecap:butt;stroke-linejoin:miter;stroke-opacity:1;stroke-miterlimit:4;stroke-dasharray:none;marker-end:url(#marker4515)" />
    <path
       inkscape:connector-curvature="0"
       id="path5009"
       d="m 316.5,239.8622 0,-195.499995"
       style="fill:none;fill-rule:evenodd;stroke:#000000;stroke-width:0.5;stroke-linecap:butt;stroke-linejoin:miter;stroke-miterlimit:4;stroke-dasharray:none;stroke-dashoffset:0;stroke-opacity:1;marker-start:url(#DistanceStart);marker-end:url(#DistanceEnd)" />
    <path
       inkscape:connector-curvature="0"
       id="path10227"
       d="m 357,43.362205 14.3391,-8.278684"
       style="fill:none;fill-rule:evenodd;stroke:#000000;stroke-width:0.5;stroke-linecap:butt;stroke-linejoin:miter;stroke-opacity:1;stroke-miterlimit:4;stroke-dasharray:none" />
    <path
       inkscape:connector-curvature="0"
       id="path10229"
       d="m 358,241.3622 16.70513,-9.6447"
       style="fill:none;fill-rule:evenodd;stroke:#000000;stroke-width:0.5;stroke-linecap:butt;stroke-linejoin:miter;stroke-opacity:1;stroke-miterlimit:4;stroke-dasharray:none" />
    <g
       id="g12240"
       transform="matrix(0.4,0,0,0.4,254.52047,-102.40352)">
      <g
         id="g12242"
         transform="matrix(1.0629921,0,0,-1.0629921,-186.02362,789.27165)"
         xml:space="preserve"
         stroke-miterlimit="10.433"
         font-style="normal"
         font-variant="normal"
         font-weight="normal"
         font-stretch="normal"
         font-size-adjust="none"
         letter-spacing="normal"
         word-spacing="normal"
         style="font-style:normal;font-variant:normal;font-weight:normal;font-stretch:normal;letter-spacing:normal;word-spacing:normal;text-anchor:start;fill:none;fill-opacity:1;fill-rule:evenodd;stroke:#000000;stroke-linecap:butt;stroke-linejoin:miter;stroke-miterlimit:10.43299961;stroke-dasharray:none;stroke-dashoffset:0;stroke-opacity:1"><path
           d="m 478.58,423.09 -0.05,0.29 -0.06,0.29 -0.07,0.28 -0.08,0.28 -0.09,0.28 -0.09,0.27 -0.11,0.27 -0.12,0.26 -0.12,0.26 -0.14,0.25 -0.14,0.25 -0.15,0.24 -0.17,0.23 -0.17,0.22 -0.18,0.22 -0.2,0.21 -0.2,0.2 -0.21,0.18 -0.23,0.18 -0.23,0.17 -0.24,0.16 -0.26,0.15 -0.26,0.13 -0.28,0.12 -0.28,0.11 -0.3,0.1 -0.3,0.08 -0.32,0.07 -0.32,0.05 -0.34,0.04 -0.35,0.03 -0.36,0 0,-1.09 c 5.44,0 5.53,-5.58 5.53,-6.58 0,-3.58 -3.19,-14.79 -10.86,-14.79 l 0,0 c -5.48,0 -5.48,5.14 -5.48,5.62 0,1.36 1.25,8.33 3.29,11.31 1.99,2.85 4.43,4.44 7.52,4.44 l 0,1.09 c -3.05,0 -6.28,-0.79 -10.16,-4.68 -4.14,-4.13 -4.48,-8.77 -4.48,-10.32 0,-3.07 2.19,-8.85 9.16,-8.85 11.86,0 17.04,16.73 17.04,23.85 0,7.93 -4.64,12.91 -10.76,12.91 -7.22,0 -9.52,-6.47 -9.52,-7.87 0,-0.69 0.39,-1.74 1.89,-1.74 1.64,0 2.69,1.49 2.69,2.64 0,1.74 -1.55,1.74 -2.34,1.74 2.2,3.68 5.73,3.98 7.18,3.98 3.63,0 7.13,-2.59 7.13,-9.01 0,-1.94 -0.31,-4.49 -1.36,-8.52 z"
           id="path12244"
           inkscape:connector-curvature="0"
           style="fill:#000000;stroke-width:0" /><path
           d="m 498.63,440.03 0.01,0.02 0,0.03 0.01,0.02 0,0.02 0,0.03 0.01,0.02 0,0.02 0,0.02 0.01,0.04 0.01,0.04 0,0.04 0.01,0.03 0,0.03 0.01,0.03 0,0.03 0,0.03 0.01,0.02 0,0.03 0,0.02 0.01,0.02 0,0.02 0,0.02 0,0.02 0,0.02 0,0.01 0,0.02 0,0.02 0.01,0.01 0,0.03 0,0.03 0,0.03 0,0.02 c 0,0.35 -0.1,0.5 -0.55,0.5 -0.55,0 -2.05,-0.75 -3.03,-1.25 -2.3,-1.14 -4.19,-2.09 -4.19,-2.98 0,-0.3 0.34,-0.3 0.55,-0.3 0.59,0 1.89,0.69 2.84,1.14 -0.61,-4.87 -1.8,-11.25 -2.7,-15.54 -1.85,-8.47 -2.78,-11.5 -5.22,-16.35 -0.25,-0.43 -0.25,-0.54 -0.25,-0.59 0,-0.34 0.39,-0.34 0.5,-0.34 0.8,0 2.87,0.89 3.67,2.29 0.66,1.14 2.55,4.78 4.05,10.56 1.09,4.29 2.98,10.8 6.51,15.94 2.3,3.24 4.39,4.74 7.54,4.74 2.68,0 5.12,-1.75 5.12,-4.39 0,-4.38 -4.73,-5.97 -9.91,-7.72 -0.59,-0.21 -4.03,-1.39 -4.03,-2.64 0,-0.3 0.35,-0.35 0.49,-0.35 0.2,0 1.36,0.19 2.4,0.19 5.03,0 9.11,-2.98 9.11,-7.72 0,-6.17 -5.28,-8.17 -9.81,-8.17 -3.84,0 -5.69,2.09 -6.33,2.8 -0.2,0.25 -0.25,0.34 -0.65,0.34 -1.1,0 -3.63,-1.55 -3.63,-2.44 0,-0.15 1.94,-3.43 7.31,-3.43 7.03,0 17.35,4.98 17.35,13 0,4.18 -2.8,7.32 -7.88,8.26 3.99,1.7 9.81,5.28 9.81,9.97 0,2.89 -2.39,5.03 -6.07,5.03 -1.69,0 -8.07,-0.45 -14.1,-7.92 z"
           id="path12246"
           inkscape:connector-curvature="0"
           style="fill:#000000;stroke-width:0" /><path
           d="m 526.02,412.53 3.55,0 c 0.65,0 1.11,0 1.11,0.76 0,0.49 -0.46,0.49 -1.03,0.49 l -3.32,0 1.28,5.15 c 0.04,0.18 0.11,0.35 0.11,0.49 0,0.64 -0.48,1.12 -1.19,1.12 -0.87,0 -1.38,-0.59 -1.63,-1.5 -0.24,-0.87 0.21,0.8 -1.33,-5.26 l -3.55,0 c -0.66,0 -1.11,0 -1.11,-0.77 0,-0.48 0.41,-0.48 1.05,-0.48 l 3.29,0 -2.04,-8.22 c -0.22,-0.88 -0.53,-2.13 -0.53,-2.58 0,-2.06 1.75,-3.31 3.73,-3.31 3.87,0 6.06,4.87 6.06,5.33 0,0.45 -0.45,0.45 -0.56,0.45 -0.41,0 -0.45,-0.08 -0.72,-0.66 -0.98,-2.2 -2.76,-4.15 -4.67,-4.15 -0.74,0 -1.22,0.45 -1.22,1.7 0,0.36 0.14,1.09 0.2,1.44 z"
           id="path12248"
           inkscape:connector-curvature="0"
           style="fill:#000000;stroke-width:0" /></g>    </g>
    <g
       id="g12356"
       transform="matrix(0.4,0,0,0.4,258.27574,90.596487)">
      <g
         word-spacing="normal"
         letter-spacing="normal"
         font-size-adjust="none"
         font-stretch="normal"
         font-weight="normal"
         font-variant="normal"
         font-style="normal"
         stroke-miterlimit="10.433"
         xml:space="preserve"
         transform="matrix(1.0629921,0,0,-1.0629921,-186.02362,789.27165)"
         id="g12358"
         style="font-style:normal;font-variant:normal;font-weight:normal;font-stretch:normal;letter-spacing:normal;word-spacing:normal;text-anchor:start;fill:none;fill-opacity:1;fill-rule:evenodd;stroke:#000000;stroke-linecap:butt;stroke-linejoin:miter;stroke-miterlimit:10.43299961;stroke-dasharray:none;stroke-dashoffset:0;stroke-opacity:1"><path
           id="path12360"
           d="m 478.58,423.09 -0.05,0.29 -0.06,0.29 -0.07,0.28 -0.08,0.28 -0.09,0.28 -0.09,0.27 -0.11,0.27 -0.12,0.26 -0.12,0.26 -0.14,0.25 -0.14,0.25 -0.15,0.24 -0.17,0.23 -0.17,0.22 -0.18,0.22 -0.2,0.21 -0.2,0.2 -0.21,0.18 -0.23,0.18 -0.23,0.17 -0.24,0.16 -0.26,0.15 -0.26,0.13 -0.28,0.12 -0.28,0.11 -0.3,0.1 -0.3,0.08 -0.32,0.07 -0.32,0.05 -0.34,0.04 -0.35,0.03 -0.36,0 0,-1.09 c 5.44,0 5.53,-5.58 5.53,-6.58 0,-3.58 -3.19,-14.79 -10.86,-14.79 l 0,0 c -5.48,0 -5.48,5.14 -5.48,5.62 0,1.36 1.25,8.33 3.29,11.31 1.99,2.85 4.43,4.44 7.52,4.44 l 0,1.09 c -3.05,0 -6.28,-0.79 -10.16,-4.68 -4.14,-4.13 -4.48,-8.77 -4.48,-10.32 0,-3.07 2.19,-8.85 9.16,-8.85 11.86,0 17.04,16.73 17.04,23.85 0,7.93 -4.64,12.91 -10.76,12.91 -7.22,0 -9.52,-6.47 -9.52,-7.87 0,-0.69 0.39,-1.74 1.89,-1.74 1.64,0 2.69,1.49 2.69,2.64 0,1.74 -1.55,1.74 -2.34,1.74 2.2,3.68 5.73,3.98 7.18,3.98 3.63,0 7.13,-2.59 7.13,-9.01 0,-1.94 -0.31,-4.49 -1.36,-8.52 z"
           inkscape:connector-curvature="0"
           style="fill:#000000;stroke-width:0" /><path
           id="path12362"
           d="m 498.63,440.03 0.01,0.02 0,0.03 0.01,0.02 0,0.02 0,0.03 0.01,0.02 0,0.02 0,0.02 0.01,0.04 0.01,0.04 0,0.04 0.01,0.03 0,0.03 0.01,0.03 0,0.03 0,0.03 0.01,0.02 0,0.03 0,0.02 0.01,0.02 0,0.02 0,0.02 0,0.02 0,0.02 0,0.01 0,0.02 0,0.02 0.01,0.01 0,0.03 0,0.03 0,0.03 0,0.02 c 0,0.35 -0.1,0.5 -0.55,0.5 -0.55,0 -2.05,-0.75 -3.03,-1.25 -2.3,-1.14 -4.19,-2.09 -4.19,-2.98 0,-0.3 0.34,-0.3 0.55,-0.3 0.59,0 1.89,0.69 2.84,1.14 -0.61,-4.87 -1.8,-11.25 -2.7,-15.54 -1.85,-8.47 -2.78,-11.5 -5.22,-16.35 -0.25,-0.43 -0.25,-0.54 -0.25,-0.59 0,-0.34 0.39,-0.34 0.5,-0.34 0.8,0 2.87,0.89 3.67,2.29 0.66,1.14 2.55,4.78 4.05,10.56 1.09,4.29 2.98,10.8 6.51,15.94 2.3,3.24 4.39,4.74 7.54,4.74 2.68,0 5.12,-1.75 5.12,-4.39 0,-4.38 -4.73,-5.97 -9.91,-7.72 -0.59,-0.21 -4.03,-1.39 -4.03,-2.64 0,-0.3 0.35,-0.35 0.49,-0.35 0.2,0 1.36,0.19 2.4,0.19 5.03,0 9.11,-2.98 9.11,-7.72 0,-6.17 -5.28,-8.17 -9.81,-8.17 -3.84,0 -5.69,2.09 -6.33,2.8 -0.2,0.25 -0.25,0.34 -0.65,0.34 -1.1,0 -3.63,-1.55 -3.63,-2.44 0,-0.15 1.94,-3.43 7.31,-3.43 7.03,0 17.35,4.98 17.35,13 0,4.18 -2.8,7.32 -7.88,8.26 3.99,1.7 9.81,5.28 9.81,9.97 0,2.89 -2.39,5.03 -6.07,5.03 -1.69,0 -8.07,-0.45 -14.1,-7.92 z"
           inkscape:connector-curvature="0"
           style="fill:#000000;stroke-width:0" /><path
           id="path12364"
           d="m 532.18,404.4 -0.02,-0.06 -0.02,-0.07 -0.02,-0.08 -0.01,-0.07 -0.02,-0.08 -0.02,-0.08 -0.02,-0.08 -0.02,-0.08 -0.04,-0.17 -0.05,-0.17 -0.04,-0.17 -0.02,-0.08 -0.02,-0.08 -0.02,-0.08 -0.02,-0.07 -0.02,-0.07 -0.02,-0.07 -0.01,-0.07 -0.02,-0.06 -0.02,-0.06 -0.01,-0.06 -0.02,-0.05 -0.01,-0.04 -0.02,-0.04 -0.01,-0.04 0,-0.01 -0.01,-0.01 0,-0.01 -0.01,-0.01 0,-0.01 0,-0.01 -0.01,0 0,0 c -0.67,-1.08 -2.06,-2.97 -4.22,-2.97 -2.41,0 -2.41,2.26 -2.41,2.89 0,2.06 0.97,4.53 1.96,7.08 0.28,0.7 0.48,1.21 0.48,1.78 0,1.81 -1.53,2.98 -3.31,2.98 -3.48,0 -5.05,-4.76 -5.05,-5.33 0,-0.45 0.49,-0.45 0.6,-0.45 0.48,0 0.51,0.17 0.62,0.56 0.83,2.86 2.38,4.25 3.72,4.25 0.59,0 0.88,-0.39 0.88,-1.22 0,-0.79 -0.29,-1.53 -0.63,-2.32 -1.87,-4.82 -1.87,-5.83 -1.87,-6.77 0,-0.59 0,-2.2 1.28,-3.31 1.01,-0.83 2.37,-1.11 3.59,-1.11 2.19,0 3.38,1.19 4.53,2.29 0.77,-2.23 3.1,-2.29 3.52,-2.29 1.18,0 2.09,0.69 2.75,1.84 0.76,1.36 1.25,3.38 1.25,3.49 0,0.45 -0.49,0.45 -0.58,0.45 -0.5,0 -0.53,-0.14 -0.78,-1.08 -0.41,-1.64 -1.08,-3.73 -2.53,-3.73 -0.91,0 -1.16,0.79 -1.16,1.7 0,0.59 0.28,1.86 0.53,2.77 0.23,0.93 0.58,2.35 0.77,3.12 l 0.79,3.11 c 0.21,0.87 0.6,2.41 0.6,2.58 0,0.69 -0.56,1.11 -1.16,1.11 -1.28,0 -1.53,-1.02 -1.81,-2.13 z"
           inkscape:connector-curvature="0"
           style="fill:#000000;stroke-width:0" /></g>    </g>
    <g
       transform="matrix(0.4,0,0,0.4,217.95456,-59.37749)"
       id="g13010">
      <g
         style="font-style:normal;font-variant:normal;font-weight:normal;font-stretch:normal;letter-spacing:normal;word-spacing:normal;text-anchor:start;fill:none;fill-opacity:1;fill-rule:evenodd;stroke:#000000;stroke-linecap:butt;stroke-linejoin:miter;stroke-miterlimit:10.43299961;stroke-dasharray:none;stroke-dashoffset:0;stroke-opacity:1"
         id="g13012"
         transform="matrix(1.0629921,0,0,-1.0629921,-186.02362,789.27165)"
         xml:space="preserve"
         stroke-miterlimit="10.433"
         font-style="normal"
         font-variant="normal"
         font-weight="normal"
         font-stretch="normal"
         font-size-adjust="none"
         letter-spacing="normal"
         word-spacing="normal"><path
           style="fill:#000000;stroke-width:0"
           inkscape:connector-curvature="0"
           d="m 469.47,440.03 0.01,0.02 0,0.03 0.01,0.02 0,0.02 0,0.03 0.01,0.02 0,0.02 0,0.02 0.01,0.04 0.01,0.04 0,0.04 0.01,0.03 0,0.03 0.01,0.03 0,0.03 0,0.03 0.01,0.02 0,0.03 0,0.02 0,0.02 0.01,0.02 0,0.02 0,0.02 0,0.02 0,0.01 0,0.02 0,0.02 0,0.01 0.01,0.03 0,0.03 0,0.03 0,0.02 c 0,0.35 -0.1,0.5 -0.55,0.5 -0.55,0 -2.05,-0.75 -3.03,-1.25 -2.3,-1.14 -4.19,-2.09 -4.19,-2.98 0,-0.3 0.34,-0.3 0.55,-0.3 0.59,0 1.89,0.69 2.84,1.14 -0.61,-4.87 -1.8,-11.25 -2.7,-15.54 -1.85,-8.47 -2.78,-11.5 -5.22,-16.35 -0.25,-0.43 -0.25,-0.54 -0.25,-0.59 0,-0.34 0.39,-0.34 0.5,-0.34 0.8,0 2.87,0.89 3.67,2.29 0.66,1.14 2.55,4.78 4.05,10.56 1.09,4.29 2.98,10.8 6.51,15.94 2.3,3.24 4.39,4.74 7.54,4.74 2.68,0 5.12,-1.75 5.12,-4.39 0,-4.38 -4.73,-5.97 -9.91,-7.72 -0.59,-0.21 -4.03,-1.39 -4.03,-2.64 0,-0.3 0.35,-0.35 0.49,-0.35 0.2,0 1.36,0.19 2.4,0.19 5.03,0 9.11,-2.98 9.11,-7.72 0,-6.17 -5.28,-8.17 -9.81,-8.17 -3.84,0 -5.69,2.09 -6.33,2.8 -0.2,0.25 -0.25,0.34 -0.65,0.34 -1.1,0 -3.63,-1.55 -3.63,-2.44 0,-0.15 1.94,-3.43 7.31,-3.43 7.03,0 17.35,4.98 17.35,13 0,4.18 -2.8,7.32 -7.88,8.26 3.99,1.7 9.81,5.28 9.81,9.97 0,2.89 -2.39,5.03 -6.07,5.03 -1.69,0 -8.07,-0.45 -14.1,-7.92 z"
           id="path13014" /></g>    </g>
    <g
       id="g13158"
       transform="matrix(0.4,0,0,0.4,253.10161,23.54999)">
      <g
         word-spacing="normal"
         letter-spacing="normal"
         font-size-adjust="none"
         font-stretch="normal"
         font-weight="normal"
         font-variant="normal"
         font-style="normal"
         stroke-miterlimit="10.433"
         xml:space="preserve"
         transform="matrix(1.0629921,0,0,-1.0629921,-186.02362,789.27165)"
         id="g13160"
         style="font-style:normal;font-variant:normal;font-weight:normal;font-stretch:normal;letter-spacing:normal;word-spacing:normal;text-anchor:start;fill:none;fill-opacity:1;fill-rule:evenodd;stroke:#000000;stroke-linecap:butt;stroke-linejoin:miter;stroke-miterlimit:10.43299961;stroke-dasharray:none;stroke-dashoffset:0;stroke-opacity:1"><path
           id="path13162"
           d="m 490.8,417.81 0.01,0.02 0.01,0.03 0.02,0.05 0.02,0.05 0.02,0.05 0.02,0.05 0.02,0.05 0.02,0.05 0.01,0.05 0.01,0.03 0.01,0.02 0.01,0.02 0.01,0.03 0,0.02 0.01,0.02 0.01,0.02 0,0.02 0.01,0.02 0,0.02 0.01,0.01 0,0.02 0,0.02 0,0.01 0,0.01 0.01,0.01 c 0,0.05 0,0.55 -0.6,0.55 -0.45,0 -0.55,-0.3 -0.64,-0.61 -3.25,-7.38 -5.08,-10.7 -13.61,-10.7 l -7.26,0 c -0.71,0 -0.8,0 -1.1,0.04 -0.5,0.05 -0.65,0.1 -0.65,0.5 0,0.14 0,0.25 0.25,1.14 l 3.39,13.61 4.93,0 c 4.24,0 4.24,-1.04 4.24,-2.29 0,-0.35 0,-0.96 -0.36,-2.44 -0.09,-0.25 -0.14,-0.41 -0.14,-0.55 0,-0.25 0.19,-0.55 0.64,-0.55 0.41,0 0.55,0.25 0.75,0.99 l 2.84,11.67 c 0,0.3 -0.25,0.55 -0.61,0.55 -0.43,0 -0.54,-0.3 -0.68,-0.91 -1.05,-3.78 -1.96,-4.92 -6.54,-4.92 l -4.68,0 3,12 c 0.43,1.75 0.5,1.94 2.68,1.94 l 7.02,0 c 6.08,0 7.58,-1.44 7.58,-5.53 0,-1.19 0,-1.29 -0.2,-2.64 0,-0.3 -0.05,-0.65 -0.05,-0.9 0,-0.25 0.15,-0.59 0.59,-0.59 0.56,0 0.61,0.3 0.71,1.25 l 1,8.61 c 0.14,1.34 -0.1,1.34 -1.35,1.34 l -25.15,0 c -1,0 -1.5,0 -1.5,-1 0,-0.54 0.45,-0.54 1.39,-0.54 1.84,0 3.23,0 3.23,-0.89 0,-0.21 0,-0.3 -0.25,-1.21 l -6.56,-26.34 c -0.5,-1.95 -0.61,-2.34 -4.55,-2.34 -0.84,0 -1.39,0 -1.39,-0.96 0,-0.59 0.45,-0.59 1.39,-0.59 l 25.86,0 c 1.16,0 1.2,0.05 1.55,0.84 z"
           inkscape:connector-curvature="0"
           style="fill:#000000;stroke-width:0" /><path
           id="path13164"
           d="m 505.23,406.25 -0.01,0.3 -0.01,0.3 -0.02,0.29 -0.02,0.28 -0.03,0.27 -0.04,0.26 -0.04,0.26 -0.06,0.24 -0.05,0.24 -0.07,0.23 -0.07,0.22 -0.08,0.21 -0.08,0.2 -0.09,0.19 -0.09,0.19 -0.1,0.17 -0.11,0.16 -0.11,0.16 -0.12,0.14 -0.12,0.13 -0.13,0.13 -0.14,0.11 -0.14,0.1 -0.14,0.1 -0.15,0.08 -0.15,0.07 -0.16,0.06 -0.16,0.05 -0.17,0.04 -0.17,0.03 -0.18,0.01 -0.18,0.01 c -1.64,0 -2.64,-1.25 -2.64,-2.64 0,-1.34 1,-2.64 2.64,-2.64 0.59,0 1.25,0.2 1.75,0.64 0.14,0.11 0.2,0.16 0.25,0.16 0.05,0 0.09,-0.05 0.09,-0.75 0,-3.69 -1.73,-6.68 -3.39,-8.32 -0.54,-0.54 -0.54,-0.65 -0.54,-0.79 0,-0.36 0.25,-0.55 0.5,-0.55 0.54,0 4.53,3.83 4.53,9.66 z"
           inkscape:connector-curvature="0"
           style="fill:#000000;stroke-width:0" /><path
           id="path13166"
           d="m 526.12,411.93 -0.19,-0.3 -0.19,-0.29 -0.18,-0.28 -0.19,-0.26 -0.19,-0.25 -0.18,-0.23 -0.19,-0.22 -0.19,-0.21 -0.18,-0.2 -0.19,-0.18 -0.19,-0.17 -0.18,-0.16 -0.19,-0.15 -0.19,-0.14 -0.19,-0.13 -0.19,-0.12 -0.18,-0.11 -0.19,-0.1 -0.19,-0.09 -0.2,-0.09 -0.19,-0.07 -0.19,-0.07 -0.19,-0.07 -0.2,-0.05 -0.19,-0.05 -0.2,-0.04 -0.2,-0.04 -0.2,-0.03 -0.4,-0.05 -0.41,-0.03 c -0.61,-0.05 -1.04,-0.05 -1.04,-1 0,-0.3 0.25,-0.55 0.64,-0.55 1.34,0 2.89,0.16 4.28,0.16 1.64,0 3.39,-0.16 4.98,-0.16 0.3,0 0.95,0 0.95,0.95 0,0.55 -0.45,0.6 -0.79,0.6 -1.16,0.09 -2.35,0.5 -2.35,1.73 0,0.61 0.3,1.16 0.69,1.84 l 3.8,6.39 12.5,0 -0.14,1.54 -11.42,0 9.82,16.45 1.6,-16.45 0.14,-1.54 c 0.11,-1.04 0.8,-7.82 0.8,-8.32 0,-1.5 -2.6,-1.64 -3.58,-1.64 -0.71,0 -1.21,0 -1.21,-1 0,-0.55 0.6,-0.55 0.71,-0.55 2.03,0 4.18,0.16 6.22,0.16 1.25,0 4.39,-0.16 5.64,-0.16 0.29,0 0.89,0 0.89,1 0,0.55 -0.5,0.55 -1.14,0.55 -3.1,0 -3.1,0.34 -3.25,1.79 l -3.03,31.13 c -0.11,1 -0.11,1.2 -0.96,1.2 -0.79,0 -0.98,-0.34 -1.29,-0.84 z"
           inkscape:connector-curvature="0"
           style="fill:#000000;stroke-width:0" /><path
           id="path13168"
           d="m 564.62,406.25 0,0.3 -0.01,0.3 -0.02,0.29 -0.03,0.28 -0.03,0.27 -0.04,0.26 -0.04,0.26 -0.05,0.24 -0.06,0.24 -0.06,0.23 -0.08,0.22 -0.07,0.21 -0.09,0.2 -0.08,0.19 -0.1,0.19 -0.1,0.17 -0.11,0.16 -0.11,0.16 -0.12,0.14 -0.12,0.13 -0.13,0.13 -0.13,0.11 -0.14,0.1 -0.14,0.1 -0.15,0.08 -0.16,0.07 -0.16,0.06 -0.16,0.05 -0.17,0.04 -0.17,0.03 -0.18,0.01 -0.18,0.01 c -1.64,0 -2.64,-1.25 -2.64,-2.64 0,-1.34 1,-2.64 2.64,-2.64 0.6,0 1.25,0.2 1.75,0.64 0.14,0.11 0.21,0.16 0.25,0.16 0.05,0 0.1,-0.05 0.1,-0.75 0,-3.69 -1.74,-6.68 -3.39,-8.32 -0.55,-0.54 -0.55,-0.65 -0.55,-0.79 0,-0.36 0.25,-0.55 0.5,-0.55 0.55,0 4.53,3.83 4.53,9.66 z"
           inkscape:connector-curvature="0"
           style="fill:#000000;stroke-width:0" /><path
           id="path13170"
           d="m 578.23,397.57 -0.01,-0.02 0,-0.03 -0.01,-0.03 0,-0.02 -0.01,-0.03 -0.01,-0.02 0,-0.02 -0.01,-0.03 0,-0.02 -0.01,-0.02 0,-0.02 0,-0.02 -0.01,-0.02 0,-0.02 -0.01,-0.04 -0.01,-0.03 0,-0.03 -0.01,-0.03 -0.01,-0.03 0,-0.03 -0.01,-0.02 0,-0.02 0,-0.03 -0.01,-0.02 0,-0.02 0,-0.01 0,-0.02 0,-0.01 -0.01,-0.02 0,-0.01 0,-0.02 0,-0.01 0,-0.01 0,-0.02 0,-0.02 0,-0.02 c 0,-0.74 0.55,-1.35 1.39,-1.35 1.05,0 1.64,0.91 1.75,1.05 0.24,0.45 1.84,7.13 3.19,12.52 0.98,-2 2.58,-3.35 4.92,-3.35 l -0.05,1.1 c -3.48,0 -4.28,3.98 -4.28,4.43 0,0.21 0.25,1.19 0.39,1.85 1.41,5.58 1.91,7.37 3,9.36 2.14,3.64 4.63,4.73 6.17,4.73 1.85,0 3.44,-1.44 3.44,-4.87 0,-2.75 -1.44,-8.33 -2.78,-10.77 -1.66,-3.14 -4.05,-4.73 -5.94,-4.73 l 0,0 0.05,-1.1 c 5.83,0 12.26,7.03 12.26,14.46 0,5.28 -3.29,8.1 -6.93,8.1 -4.83,0 -10.07,-4.98 -11.55,-11.06 z"
           inkscape:connector-curvature="0"
           style="fill:#000000;stroke-width:0" /></g>    </g>
    <path
       style="fill:none;fill-rule:evenodd;stroke:#000000;stroke-width:0.5;stroke-linecap:butt;stroke-linejoin:miter;stroke-opacity:1;stroke-miterlimit:4;stroke-dasharray:none"
       d="m 356,183.36218 19.44615,-11.22724"
       id="path13249"
       inkscape:connector-curvature="0" />
    <g
       id="g4336"
       transform="matrix(0.4,0,0,0.4,272.68268,-58.26927)">
      <g
         id="content"
         transform="matrix(1.0629921,0,0,-1.0629921,-186.02362,789.27165)"
         xml:space="preserve"
         stroke-miterlimit="10.433"
         font-style="normal"
         font-variant="normal"
         font-weight="normal"
         font-stretch="normal"
         font-size-adjust="none"
         letter-spacing="normal"
         word-spacing="normal"
         style="font-style:normal;font-variant:normal;font-weight:normal;font-stretch:normal;letter-spacing:normal;word-spacing:normal;text-anchor:start;fill:none;fill-opacity:1;fill-rule:evenodd;stroke:#000000;stroke-linecap:butt;stroke-linejoin:miter;stroke-miterlimit:10.43299961;stroke-dasharray:none;stroke-dashoffset:0;stroke-opacity:1"><path
           d="m 478.99,424.98 0.01,0.06 0.01,0.05 0.01,0.05 0.01,0.06 0.02,0.1 0.01,0.05 0.02,0.06 0.01,0.05 0.01,0.06 0.01,0.05 0,0.06 0.01,0.06 0,0.06 0.01,0.03 0,0.03 0,0.03 0,0.03 c 0,0.86 -0.59,1.36 -1.44,1.36 -0.5,0 -1.84,-0.36 -2.05,-2.16 -0.89,1.85 -2.64,3.14 -4.62,3.14 l 0.05,-1.09 c 3.28,0 3.98,-4.03 3.98,-4.28 0,-0.25 -0.09,-0.55 -0.16,-0.75 l -2.39,-9.52 c -0.29,-1.29 -1.43,-2.53 -2.53,-3.48 -1.04,-0.89 -2.59,-1.8 -4.04,-1.8 -2.49,0 -3.24,2.6 -3.24,4.58 0,2.41 1.45,8.28 2.8,10.81 1.34,2.46 3.48,4.44 5.58,4.44 l -0.05,1.09 c -5.69,0 -11.86,-6.96 -11.86,-14.14 0,-4.93 3.03,-7.87 6.63,-7.87 2.93,0 5.28,2.34 5.78,2.89 l 0.04,-0.05 c -1.04,-4.43 -1.64,-6.48 -1.64,-6.58 -0.2,-0.45 -1.89,-5.39 -7.17,-5.39 -0.95,0 -2.59,0.07 -4,0.5 1.5,0.46 2.05,1.75 2.05,2.6 0,0.79 -0.55,1.75 -1.89,1.75 -1.1,0 -2.69,-0.91 -2.69,-2.89 0,-2.05 1.84,-3.05 6.62,-3.05 6.22,0 9.82,3.89 10.57,6.88 z"
           id="path4339"
           inkscape:connector-curvature="0"
           style="fill:#000000;stroke-width:0" /></g>    </g>
    <g
       id="g4469"
       transform="matrix(0.4,0,0,0.4,182.71374,4.63845)">
      <g
         word-spacing="normal"
         letter-spacing="normal"
         font-size-adjust="none"
         font-stretch="normal"
         font-weight="normal"
         font-variant="normal"
         font-style="normal"
         stroke-miterlimit="10.433"
         xml:space="preserve"
         transform="matrix(1.0629921,0,0,-1.0629921,-186.02362,789.27165)"
         id="g4471"
         style="font-style:normal;font-variant:normal;font-weight:normal;font-stretch:normal;letter-spacing:normal;word-spacing:normal;text-anchor:start;fill:none;fill-opacity:1;fill-rule:evenodd;stroke:#000000;stroke-linecap:butt;stroke-linejoin:miter;stroke-miterlimit:10.43299961;stroke-dasharray:none;stroke-dashoffset:0;stroke-opacity:1"><path
           id="path4473"
           d="m 468.38,440.23 0,0 0,0.01 0,0 0,0.01 0,0.02 0,0.01 -0.01,0.02 0,0.02 0,0.02 -0.01,0.02 0,0.02 -0.01,0.02 -0.01,0.02 0,0.03 -0.02,0.02 -0.01,0.03 -0.01,0.02 -0.02,0.03 -0.02,0.02 -0.02,0.02 -0.02,0.03 -0.01,0.01 -0.02,0.01 -0.01,0.01 -0.01,0.01 -0.02,0.01 -0.01,0.01 -0.02,0.01 -0.02,0.01 -0.02,0.01 -0.01,0.01 -0.02,0 -0.02,0.01 -0.02,0.01 -0.03,0 -0.02,0.01 -0.02,0.01 -0.02,0 -0.03,0 -0.02,0.01 -0.03,0 -0.03,0 -0.03,0.01 -0.03,0 -0.03,0 c -1.14,0 -4.78,-0.41 -6.08,-0.5 -0.39,-0.05 -0.93,-0.1 -0.93,-1.05 0,-0.55 0.48,-0.55 1.23,-0.55 2.39,0 2.45,-0.45 2.45,-0.84 l -0.15,-1 -6.28,-24.91 c -0.14,-0.54 -0.25,-0.9 -0.25,-1.7 0,-2.83 2.2,-4.58 4.53,-4.58 1.65,0 2.89,1 3.75,2.78 0.89,1.91 1.48,4.8 1.48,4.89 0,0.5 -0.43,0.5 -0.59,0.5 -0.5,0 -0.55,-0.2 -0.7,-0.9 -0.85,-3.24 -1.79,-6.17 -3.79,-6.17 -1.5,0 -1.5,1.59 -1.5,2.29 0,1.19 0.07,1.44 0.3,2.39 z"
           inkscape:connector-curvature="0"
           style="fill:#000000;stroke-width:0" /></g>    </g>
  </g>
</svg>
