<?xml version="1.0" encoding="UTF-8" standalone="no"?>
<svg
   xmlns:dc="http://purl.org/dc/elements/1.1/"
   xmlns:cc="http://creativecommons.org/ns#"
   xmlns:rdf="http://www.w3.org/1999/02/22-rdf-syntax-ns#"
   xmlns:svg="http://www.w3.org/2000/svg"
   xmlns="http://www.w3.org/2000/svg"
   version="1.1"
   id="svg2"
   xml:space="preserve"
   width="100%"
   height="350"
   viewBox="0 0 300 258.66666"><metadata
     id="metadata8"><rdf:RDF><cc:Work
         rdf:about=""><dc:format>image/svg+xml</dc:format><dc:type
           rdf:resource="http://purl.org/dc/dcmitype/StillImage" /><dc:title></dc:title></cc:Work></rdf:RDF></metadata><defs
     id="defs6"><clipPath
       clipPathUnits="userSpaceOnUse"
       id="clipPath24"><path
         d="M 0,1940 V 0 h 2350 v 1940 z m 216.902,-594.1 v 69.29 h -18.894 v -69.29 0 l 9.445,47.25 z M 198.008,218.383 v -69.289 h 18.894 v 69.289 0 l -9.449,-47.242 z"
         clip-rule="evenodd"
         id="path22" /></clipPath><clipPath
       clipPathUnits="userSpaceOnUse"
       id="clipPath70"><path
         d="M 0,1940 V 0 H 2350 V 1940 Z M 1822.52,139.645 h 95.11 v 37.793 h -95.11 v 0 l 75.59,-18.895 z M 368.078,1631.88 v 95.11 h -37.793 v -95.11 0 l 18.899,75.58 z"
         clip-rule="evenodd"
         id="path68" /></clipPath><clipPath
       clipPathUnits="userSpaceOnUse"
       id="clipPath88"><path
         d="M 0,1940 V 0 h 2350 v 1940 z m 2144.4,-565.75 v 69.29 h -18.9 v -69.29 0 l 9.45,47.24 z M 2125.5,218.383 v -69.289 h 18.9 v 69.289 0 l -9.45,-47.242 z"
         clip-rule="evenodd"
         id="path86" /></clipPath><clipPath
       clipPathUnits="userSpaceOnUse"
       id="clipPath108"><path
         d="M 0,1940 V 0 H 2350 V 1940 Z M 339.734,76.6563 V 7.36719 h 18.899 v 69.28911 0 l -9.449,-47.2422 z"
         clip-rule="evenodd"
         id="path106" /></clipPath><clipPath
       clipPathUnits="userSpaceOnUse"
       id="clipPath122"><path
         d="M 0,1940 V 0 H 2350 V 1940 Z M 1649.93,7.36719 h 69.28 V 26.2617 h -69.28 v 0 l 47.24,-9.4453 z M 409.023,26.2617 H 339.734 V 7.36719 h 69.289 v 0 l -47.242,9.44921 z"
         clip-rule="evenodd"
         id="path120" /></clipPath><clipPath
       clipPathUnits="userSpaceOnUse"
       id="clipPath152"><path
         d="M 0,1940 V 0 h 2350 v 1940 z m 2144.4,-140.57 v 69.29 h -18.9 v -69.29 0 l 9.45,47.25 z m -18.9,-305.5 v -69.29 h 18.9 v 69.29 0 l -9.45,-47.24 z"
         clip-rule="evenodd"
         id="path150" /></clipPath><clipPath
       clipPathUnits="userSpaceOnUse"
       id="clipPath174"><path
         d="M 0,1940 V 0 h 2350 v 1940 z m 1775.91,-442.29 v 59.21 h -14.49 v -59.21 h 5.04 v 37.79 z"
         clip-rule="evenodd"
         id="path172" /></clipPath><clipPath
       clipPathUnits="userSpaceOnUse"
       id="clipPath190"><path
         d="M 0,1940 V 0 h 2350 v 1940 z m 1775.91,-272.22 v 59.21 h -14.49 v -59.21 h 5.04 v 37.8 z"
         clip-rule="evenodd"
         id="path188" /></clipPath><clipPath
       clipPathUnits="userSpaceOnUse"
       id="clipPath206"><path
         d="M 0,1940 V 0 h 2350 v 1940 z m 1775.91,-130.49 v 59.21 h -14.49 v -59.21 h 5.04 v 37.79 z"
         clip-rule="evenodd"
         id="path204" /></clipPath></defs><g
     id="g10"
     transform="matrix(1.3333333,0,0,-1.3333333,0,258.66667)"><g
       id="g12"
       transform="scale(0.1)"><path
         d="m 1738.11,1405.75 h 56.6914 v 453.527 H 1738.11 Z"
         style="fill:#868280;fill-opacity:1;fill-rule:evenodd;stroke:none"
         id="path14" /><path
         d="m 1738.11,1405.75 h 56.6914 v 453.527 H 1738.11 Z"
         style="fill:none;stroke:#000000;stroke-width:4.72425;stroke-linecap:butt;stroke-linejoin:miter;stroke-miterlimit:10;stroke-dasharray:none;stroke-opacity:1"
         id="path16" /><g
         id="g18"><g
           id="g20"
           clip-path="url(#clipPath24)"><path
             d="M 207.453,158.543 V 1405.75"
             style="fill:none;stroke:#000000;stroke-width:4.72425;stroke-linecap:butt;stroke-linejoin:miter;stroke-miterlimit:10;stroke-dasharray:none;stroke-opacity:1"
             id="path26" /></g></g><path
         d="m 198.008,218.383 9.445,-47.242 9.449,47.242 -9.449,-9.449 -9.445,9.449"
         style="fill:#000000;fill-opacity:1;fill-rule:evenodd;stroke:none"
         id="path28" /><path
         d="m 198.008,218.383 9.445,-47.242 9.449,47.242 -9.449,-9.449 z"
         style="fill:none;stroke:#000000;stroke-width:4.72425;stroke-linecap:butt;stroke-linejoin:miter;stroke-miterlimit:10;stroke-dasharray:none;stroke-opacity:1"
         id="path30" /><path
         d="m 216.902,1345.9 -9.449,47.25 -9.445,-47.25 9.445,9.45 9.449,-9.45"
         style="fill:#000000;fill-opacity:1;fill-rule:evenodd;stroke:none"
         id="path32" /><path
         d="m 216.902,1345.9 -9.449,47.25 -9.445,-47.25 9.445,9.45 z"
         style="fill:none;stroke:#000000;stroke-width:4.72425;stroke-linecap:butt;stroke-linejoin:miter;stroke-miterlimit:10;stroke-dasharray:none;stroke-opacity:1"
         id="path34" /><path
         d="m 349.184,1377.4 -56.692,-85.04"
         style="fill:none;stroke:#000000;stroke-width:4.72425;stroke-linecap:butt;stroke-linejoin:miter;stroke-miterlimit:10;stroke-dasharray:none;stroke-opacity:1"
         id="path36" /><path
         d="m 349.184,1292.36 -56.692,-85.04"
         style="fill:none;stroke:#000000;stroke-width:4.72425;stroke-linecap:butt;stroke-linejoin:miter;stroke-miterlimit:10;stroke-dasharray:none;stroke-opacity:1"
         id="path38" /><path
         d="m 349.184,1207.32 -56.692,-85.03"
         style="fill:none;stroke:#000000;stroke-width:4.72425;stroke-linecap:butt;stroke-linejoin:miter;stroke-miterlimit:10;stroke-dasharray:none;stroke-opacity:1"
         id="path40" /><path
         d="m 349.184,1122.29 -56.692,-85.04"
         style="fill:none;stroke:#000000;stroke-width:4.72425;stroke-linecap:butt;stroke-linejoin:miter;stroke-miterlimit:10;stroke-dasharray:none;stroke-opacity:1"
         id="path42" /><path
         d="M 349.184,1037.25 292.492,952.215"
         style="fill:none;stroke:#000000;stroke-width:4.72425;stroke-linecap:butt;stroke-linejoin:miter;stroke-miterlimit:10;stroke-dasharray:none;stroke-opacity:1"
         id="path44" /><path
         d="M 349.184,952.215 292.492,867.18"
         style="fill:none;stroke:#000000;stroke-width:4.72425;stroke-linecap:butt;stroke-linejoin:miter;stroke-miterlimit:10;stroke-dasharray:none;stroke-opacity:1"
         id="path46" /><path
         d="M 349.184,867.18 292.492,782.145"
         style="fill:none;stroke:#000000;stroke-width:4.72425;stroke-linecap:butt;stroke-linejoin:miter;stroke-miterlimit:10;stroke-dasharray:none;stroke-opacity:1"
         id="path48" /><path
         d="m 349.184,782.145 -56.692,-85.04"
         style="fill:none;stroke:#000000;stroke-width:4.72425;stroke-linecap:butt;stroke-linejoin:miter;stroke-miterlimit:10;stroke-dasharray:none;stroke-opacity:1"
         id="path50" /><path
         d="M 349.184,697.105 292.492,612.07"
         style="fill:none;stroke:#000000;stroke-width:4.72425;stroke-linecap:butt;stroke-linejoin:miter;stroke-miterlimit:10;stroke-dasharray:none;stroke-opacity:1"
         id="path52" /><path
         d="M 349.184,612.07 292.492,527.035"
         style="fill:none;stroke:#000000;stroke-width:4.72425;stroke-linecap:butt;stroke-linejoin:miter;stroke-miterlimit:10;stroke-dasharray:none;stroke-opacity:1"
         id="path54" /><path
         d="M 349.184,527.035 292.492,441.996"
         style="fill:none;stroke:#000000;stroke-width:4.72425;stroke-linecap:butt;stroke-linejoin:miter;stroke-miterlimit:10;stroke-dasharray:none;stroke-opacity:1"
         id="path56" /><path
         d="M 349.184,441.996 292.492,356.961"
         style="fill:none;stroke:#000000;stroke-width:4.72425;stroke-linecap:butt;stroke-linejoin:miter;stroke-miterlimit:10;stroke-dasharray:none;stroke-opacity:1"
         id="path58" /><path
         d="M 349.184,356.961 292.492,271.926"
         style="fill:none;stroke:#000000;stroke-width:4.72425;stroke-linecap:butt;stroke-linejoin:miter;stroke-miterlimit:10;stroke-dasharray:none;stroke-opacity:1"
         id="path60" /><path
         d="M 349.184,186.887 292.492,101.852"
         style="fill:none;stroke:#000000;stroke-width:4.72425;stroke-linecap:butt;stroke-linejoin:miter;stroke-miterlimit:10;stroke-dasharray:none;stroke-opacity:1"
         id="path62" /><g
         id="g64"><g
           id="g66"
           clip-path="url(#clipPath70)"><path
             d="M 349.184,1717.55 V 158.543 H 1908.18"
             style="fill:none;stroke:#000000;stroke-width:4.72425;stroke-linecap:butt;stroke-linejoin:miter;stroke-miterlimit:10;stroke-dasharray:none;stroke-opacity:1"
             id="path72" /></g></g><path
         d="m 368.078,1631.88 -18.894,75.58 -18.899,-75.58 h 37.793"
         style="fill:#000000;fill-opacity:1;fill-rule:evenodd;stroke:none"
         id="path74" /><path
         d="m 368.078,1631.88 -18.894,75.58 -18.899,-75.58 z"
         style="fill:none;stroke:#000000;stroke-width:4.72425;stroke-linecap:butt;stroke-linejoin:miter;stroke-miterlimit:10;stroke-dasharray:none;stroke-opacity:1"
         id="path76" /><path
         d="m 1822.52,139.645 75.59,18.898 -75.59,18.895 v -37.793"
         style="fill:#000000;fill-opacity:1;fill-rule:evenodd;stroke:none"
         id="path78" /><path
         d="m 1822.52,139.645 75.59,18.898 -75.59,18.895 z"
         style="fill:none;stroke:#000000;stroke-width:4.72425;stroke-linecap:butt;stroke-linejoin:miter;stroke-miterlimit:10;stroke-dasharray:none;stroke-opacity:1"
         id="path80" /><g
         id="g82"><g
           id="g84"
           clip-path="url(#clipPath88)"><path
             d="M 2134.95,158.543 V 1434.09"
             style="fill:none;stroke:#000000;stroke-width:4.72425;stroke-linecap:butt;stroke-linejoin:miter;stroke-miterlimit:10;stroke-dasharray:none;stroke-opacity:1"
             id="path90" /></g></g><path
         d="m 2125.5,218.383 9.45,-47.242 9.45,47.242 -9.45,-9.449 -9.45,9.449"
         style="fill:#000000;fill-opacity:1;fill-rule:evenodd;stroke:none"
         id="path92" /><path
         d="m 2125.5,218.383 9.45,-47.242 9.45,47.242 -9.45,-9.449 z"
         style="fill:none;stroke:#000000;stroke-width:4.72425;stroke-linecap:butt;stroke-linejoin:miter;stroke-miterlimit:10;stroke-dasharray:none;stroke-opacity:1"
         id="path94" /><path
         d="m 2144.4,1374.25 -9.45,47.24 -9.45,-47.24 9.45,9.45 9.45,-9.45"
         style="fill:#000000;fill-opacity:1;fill-rule:evenodd;stroke:none"
         id="path96" /><path
         d="m 2144.4,1374.25 -9.45,47.24 -9.45,-47.24 9.45,9.45 z"
         style="fill:none;stroke:#000000;stroke-width:4.72425;stroke-linecap:butt;stroke-linejoin:miter;stroke-miterlimit:10;stroke-dasharray:none;stroke-opacity:1"
         id="path98" /><path
         d="M 207.453,1405.75 H 349.184"
         style="fill:none;stroke:#000000;stroke-width:4.72425;stroke-linecap:butt;stroke-linejoin:miter;stroke-miterlimit:10;stroke-dasharray:28.3455;stroke-dashoffset:0;stroke-opacity:1"
         id="path100" /><g
         id="g102"><g
           id="g104"
           clip-path="url(#clipPath108)"><path
             d="M 349.184,16.8164 V 158.543"
             style="fill:none;stroke:#000000;stroke-width:4.72425;stroke-linecap:butt;stroke-linejoin:miter;stroke-miterlimit:10;stroke-dasharray:none;stroke-opacity:1"
             id="path110" /></g></g><path
         d="m 339.734,76.6563 9.45,-47.2422 9.449,47.2422 -9.449,-9.4493 -9.45,9.4493"
         style="fill:#000000;fill-opacity:1;fill-rule:evenodd;stroke:none"
         id="path112" /><path
         d="m 339.734,76.6563 9.45,-47.2422 9.449,47.2422 -9.449,-9.4493 z"
         style="fill:none;stroke:#000000;stroke-width:4.72425;stroke-linecap:butt;stroke-linejoin:miter;stroke-miterlimit:10;stroke-dasharray:none;stroke-opacity:1"
         id="path114" /><g
         id="g116"><g
           id="g118"
           clip-path="url(#clipPath122)"><path
             d="M 349.184,16.8164 H 1709.77"
             style="fill:none;stroke:#000000;stroke-width:4.72425;stroke-linecap:butt;stroke-linejoin:miter;stroke-miterlimit:10;stroke-dasharray:none;stroke-opacity:1"
             id="path124" /></g></g><path
         d="m 409.023,26.2617 -47.242,-9.4453 47.242,-9.44921 -9.449,9.44921 9.449,9.4453"
         style="fill:#000000;fill-opacity:1;fill-rule:evenodd;stroke:none"
         id="path126" /><path
         d="m 409.023,26.2617 -47.242,-9.4453 47.242,-9.44921 -9.449,9.44921 z"
         style="fill:none;stroke:#000000;stroke-width:4.72425;stroke-linecap:butt;stroke-linejoin:miter;stroke-miterlimit:10;stroke-dasharray:none;stroke-opacity:1"
         id="path128" /><path
         d="m 1649.93,7.36719 47.24,9.44921 -47.24,9.4453 9.45,-9.4453 -9.45,-9.44921"
         style="fill:#000000;fill-opacity:1;fill-rule:evenodd;stroke:none"
         id="path130" /><path
         d="m 1649.93,7.36719 47.24,9.44921 -47.24,9.4453 9.45,-9.4453 z"
         style="fill:none;stroke:#000000;stroke-width:4.72425;stroke-linecap:butt;stroke-linejoin:miter;stroke-miterlimit:10;stroke-dasharray:none;stroke-opacity:1"
         id="path132" /><path
         d="M 349.184,271.926 292.492,186.887"
         style="fill:none;stroke:#000000;stroke-width:4.72425;stroke-linecap:butt;stroke-linejoin:miter;stroke-miterlimit:10;stroke-dasharray:none;stroke-opacity:1"
         id="path134" /><path
         d="M 1709.77,16.8164 V 1405.75"
         style="fill:none;stroke:#000000;stroke-width:4.72425;stroke-linecap:butt;stroke-linejoin:miter;stroke-miterlimit:10;stroke-dasharray:28.3455;stroke-dashoffset:0;stroke-opacity:1"
         id="path136" /><path
         d="m 1709.77,1405.75 h 425.18"
         style="fill:none;stroke:#000000;stroke-width:4.72425;stroke-linecap:butt;stroke-linejoin:miter;stroke-miterlimit:10;stroke-dasharray:28.3455;stroke-dashoffset:0;stroke-opacity:1"
         id="path138" /><path
         d="m 1709.77,1859.27 h 425.18"
         style="fill:none;stroke:#000000;stroke-width:4.72425;stroke-linecap:butt;stroke-linejoin:miter;stroke-miterlimit:10;stroke-dasharray:28.3455;stroke-dashoffset:0;stroke-opacity:1"
         id="path140" /><path
         d="M 207.453,158.543 H 349.184"
         style="fill:none;stroke:#000000;stroke-width:4.72425;stroke-linecap:butt;stroke-linejoin:miter;stroke-miterlimit:10;stroke-dasharray:37.794;stroke-dashoffset:0;stroke-opacity:1"
         id="path142" /><path
         d="m 1879.84,158.543 h 255.11"
         style="fill:none;stroke:#000000;stroke-width:4.72425;stroke-linecap:butt;stroke-linejoin:miter;stroke-miterlimit:10;stroke-dasharray:37.794;stroke-dashoffset:0;stroke-opacity:1"
         id="path144" /><g
         id="g146"><g
           id="g148"
           clip-path="url(#clipPath152)"><path
             d="m 2134.95,1434.09 v 425.18"
             style="fill:none;stroke:#000000;stroke-width:4.72425;stroke-linecap:butt;stroke-linejoin:miter;stroke-miterlimit:10;stroke-dasharray:none;stroke-opacity:1"
             id="path154" /></g></g><path
         d="m 2125.5,1493.93 9.45,-47.24 9.45,47.24 -9.45,-9.45 -9.45,9.45"
         style="fill:#000000;fill-opacity:1;fill-rule:evenodd;stroke:none"
         id="path156" /><path
         d="m 2125.5,1493.93 9.45,-47.24 9.45,47.24 -9.45,-9.45 z"
         style="fill:none;stroke:#000000;stroke-width:4.72425;stroke-linecap:butt;stroke-linejoin:miter;stroke-miterlimit:10;stroke-dasharray:none;stroke-opacity:1"
         id="path158" /><path
         d="m 2144.4,1799.43 -9.45,47.25 -9.45,-47.25 9.45,9.45 9.45,-9.45"
         style="fill:#000000;fill-opacity:1;fill-rule:evenodd;stroke:none"
         id="path160" /><path
         d="m 2144.4,1799.43 -9.45,47.25 -9.45,-47.25 9.45,9.45 z"
         style="fill:none;stroke:#000000;stroke-width:4.72425;stroke-linecap:butt;stroke-linejoin:miter;stroke-miterlimit:10;stroke-dasharray:none;stroke-opacity:1"
         id="path162" /><path
         d="M 349.184,158.543 V 1405.75 l 1360.586,453.52 v -453.52"
         style="fill:#d0d0d0;fill-opacity:1;fill-rule:evenodd;stroke:none"
         id="path164" /><path
         d="M 349.184,158.543 V 1405.75 l 1360.586,453.52 v -453.52 z"
         style="fill:none;stroke:#000000;stroke-width:4.72425;stroke-linecap:butt;stroke-linejoin:miter;stroke-miterlimit:10;stroke-dasharray:none;stroke-opacity:1"
         id="path166" /><g
         id="g168"><g
           id="g170"
           clip-path="url(#clipPath174)"><path
             d="m 1766.46,1405.75 v 141.72"
             style="fill:#868280;fill-opacity:1;fill-rule:evenodd;stroke:none"
             id="path176" /><path
             d="m 1766.46,1405.75 v 141.72"
             style="fill:none;stroke:#000000;stroke-width:4.72425;stroke-linecap:butt;stroke-linejoin:miter;stroke-miterlimit:10;stroke-dasharray:none;stroke-opacity:1"
             id="path178" /></g></g><path
         d="m 1775.91,1497.71 -9.45,37.79 v -37.79 h 9.45"
         style="fill:#000000;fill-opacity:1;fill-rule:evenodd;stroke:none"
         id="path180" /><path
         d="m 1775.91,1497.71 -9.45,37.79 v -37.79 z"
         style="fill:none;stroke:#000000;stroke-width:4.72425;stroke-linecap:butt;stroke-linejoin:miter;stroke-miterlimit:10;stroke-dasharray:none;stroke-opacity:1"
         id="path182" /><g
         id="g184"><g
           id="g186"
           clip-path="url(#clipPath190)"><path
             d="m 1766.46,1575.82 v 141.73"
             style="fill:#868280;fill-opacity:1;fill-rule:evenodd;stroke:none"
             id="path192" /><path
             d="m 1766.46,1575.82 v 141.73"
             style="fill:none;stroke:#000000;stroke-width:4.72425;stroke-linecap:butt;stroke-linejoin:miter;stroke-miterlimit:10;stroke-dasharray:none;stroke-opacity:1"
             id="path194" /></g></g><path
         d="m 1775.91,1667.78 -9.45,37.8 v -37.8 h 9.45"
         style="fill:#000000;fill-opacity:1;fill-rule:evenodd;stroke:none"
         id="path196" /><path
         d="m 1775.91,1667.78 -9.45,37.8 v -37.8 z"
         style="fill:none;stroke:#000000;stroke-width:4.72425;stroke-linecap:butt;stroke-linejoin:miter;stroke-miterlimit:10;stroke-dasharray:none;stroke-opacity:1"
         id="path198" /><g
         id="g200"><g
           id="g202"
           clip-path="url(#clipPath206)"><path
             d="m 1766.46,1717.55 v 141.72"
             style="fill:none;stroke:#000000;stroke-width:4.72425;stroke-linecap:butt;stroke-linejoin:miter;stroke-miterlimit:10;stroke-dasharray:none;stroke-opacity:1"
             id="path208" /></g></g><path
         d="m 1775.91,1809.51 -9.45,37.79 v -37.79 h 9.45"
         style="fill:#000000;fill-opacity:1;fill-rule:evenodd;stroke:none"
         id="path210" /><path
         d="m 1775.91,1809.51 -9.45,37.79 v -37.79 z"
         style="fill:none;stroke:#000000;stroke-width:4.72425;stroke-linecap:butt;stroke-linejoin:miter;stroke-miterlimit:10;stroke-dasharray:none;stroke-opacity:1"
         id="path212" /><g
         id="g214"
         transform="scale(10)"><text
           transform="matrix(1,0,0,-1,97.2785,4.51602)"
           style="font-variant:normal;font-weight:normal;font-size:9.99966px;font-family:Times;-inkscape-font-specification:Times-Roman;writing-mode:lr-tb;fill:#000000;fill-opacity:1;fill-rule:nonzero;stroke:none"
           id="text234"><tspan
             x="0 4.9998298"
             y="0"
             id="tspan216">48</tspan><tspan
             x="119.051 124.05083"
             y="-73.698402"
             id="tspan218">44</tspan><tspan
             x="-96.375 -91.375168"
             y="-76.532784"
             id="tspan220">44</tspan><tspan
             x="119.051 124.05083"
             y="-158.73479"
             id="tspan222">16</tspan><tspan
             x="85.036499"
             y="-19.84178"
             id="tspan224">X</tspan><tspan
             x="-56.690498"
             y="-158.73479"
             id="tspan226">Y</tspan><tspan
             x="-59.525269"
             y="-124.72028"
             id="tspan228">B</tspan><tspan
             x="59.52573"
             y="-181.41129"
             id="tspan230">A</tspan><tspan
             x="85.036629"
             y="-158.73468"
             id="tspan232">t</tspan></text></g><path
         d="m 1738.11,1859.27 c 0,-15.65 -12.69,-28.34 -28.34,-28.34 -15.66,0 -28.35,12.69 -28.35,28.34 0,15.66 12.69,28.35 28.35,28.35 15.65,0 28.34,-12.69 28.34,-28.35"
         style="fill:#000000;fill-opacity:1;fill-rule:evenodd;stroke:none"
         id="path236" /><path
         d="m 1738.11,1859.27 c 0,-15.65 -12.69,-28.34 -28.34,-28.34 -15.66,0 -28.35,12.69 -28.35,28.34 0,15.66 12.69,28.35 28.35,28.35 15.65,0 28.34,-12.69 28.34,-28.35 z"
         style="fill:none;stroke:#000000;stroke-width:4.72425;stroke-linecap:butt;stroke-linejoin:miter;stroke-miterlimit:10;stroke-dasharray:none;stroke-opacity:1"
         id="path238" /><path
         d="m 377.527,1405.75 c 0,-15.66 -12.691,-28.35 -28.343,-28.35 -15.653,0 -28.348,12.69 -28.348,28.35 0,15.65 12.695,28.34 28.348,28.34 15.652,0 28.343,-12.69 28.343,-28.34"
         style="fill:#000000;fill-opacity:1;fill-rule:evenodd;stroke:none"
         id="path240" /><path
         d="m 377.527,1405.75 c 0,-15.66 -12.691,-28.35 -28.343,-28.35 -15.653,0 -28.348,12.69 -28.348,28.35 0,15.65 12.695,28.34 28.348,28.34 15.652,0 28.343,-12.69 28.343,-28.34 z"
         style="fill:none;stroke:#000000;stroke-width:4.72425;stroke-linecap:butt;stroke-linejoin:miter;stroke-miterlimit:10;stroke-dasharray:none;stroke-opacity:1"
         id="path242" /></g></g></svg>
