<?xml version="1.0" encoding="UTF-8"?>
<svg xmlns="http://www.w3.org/2000/svg" xmlns:xlink="http://www.w3.org/1999/xlink" width="100%" height="180.233871pt" viewBox="0 0 105.255562 180.233871" version="1.1">
<defs>
<clipPath id="clip1">
  <path d="M 27 168 L 43 168 L 43 180.234375 L 27 180.234375 Z M 27 168 "/>
</clipPath>
<clipPath id="clip2">
  <path d="M 32 169 L 49 169 L 49 180.234375 L 32 180.234375 Z M 32 169 "/>
</clipPath>
<clipPath id="clip3">
  <path d="M 38 168 L 55 168 L 55 180.234375 L 38 180.234375 Z M 38 168 "/>
</clipPath>
<clipPath id="clip4">
  <path d="M 97 105 L 105.253906 105 L 105.253906 117 L 97 117 Z M 97 105 "/>
</clipPath>
</defs>
<g id="surface1">
<path style="fill:none;stroke-width:2.4;stroke-linecap:butt;stroke-linejoin:miter;stroke:rgb(0%,0%,0%);stroke-opacity:1;stroke-miterlimit:4;" d="M 43.261719 14.351562 L 43.261719 173.550781 "/>
<path style="fill:none;stroke-width:0.8;stroke-linecap:butt;stroke-linejoin:miter;stroke:rgb(0%,0%,0%);stroke-opacity:1;stroke-miterlimit:4;" d="M 66.464844 31.152344 L 66.464844 62.351562 "/>
<path style="fill-rule:evenodd;fill:rgb(0%,0%,0%);fill-opacity:1;stroke-width:0.55;stroke-linecap:butt;stroke-linejoin:round;stroke:rgb(0%,0%,0%);stroke-opacity:1;stroke-miterlimit:4;" d="M -53.796875 70.011719 L -63.414062 66.476562 L -53.796875 62.941406 C -55.335938 65.027344 -55.324219 67.886719 -53.796875 70.011719 Z M -53.796875 70.011719 " transform="matrix(0,-1,1,0,0,0)"/>
<path style="fill:none;stroke-width:0.8;stroke-linecap:butt;stroke-linejoin:miter;stroke:rgb(0%,0%,0%);stroke-opacity:1;stroke-miterlimit:4;" d="M 33.664062 172.75 L 53.664062 172.75 "/>
<g clip-path="url(#clip1)" clip-rule="nonzero">
<path style="fill:none;stroke-width:0.8;stroke-linecap:butt;stroke-linejoin:miter;stroke:rgb(0%,0%,0%);stroke-opacity:1;stroke-miterlimit:4;" d="M 38.0625 173.152344 L 31.664062 179.550781 "/>
</g>
<g clip-path="url(#clip2)" clip-rule="nonzero">
<path style="fill:none;stroke-width:0.8;stroke-linecap:butt;stroke-linejoin:miter;stroke:rgb(0%,0%,0%);stroke-opacity:1;stroke-miterlimit:4;" d="M 43.664062 173.550781 L 37.261719 179.949219 "/>
</g>
<g clip-path="url(#clip3)" clip-rule="nonzero">
<path style="fill:none;stroke-width:0.8;stroke-linecap:butt;stroke-linejoin:miter;stroke:rgb(0%,0%,0%);stroke-opacity:1;stroke-miterlimit:4;" d="M 49.664062 173.152344 L 43.261719 179.550781 "/>
</g>
<path style="fill:none;stroke-width:0.8;stroke-linecap:butt;stroke-linejoin:miter;stroke:rgb(0%,0%,0%);stroke-opacity:1;stroke-miterlimit:4;" d="M 43.261719 171.949219 L 43.261719 143.152344 "/>
<path style="fill-rule:evenodd;fill:rgb(0%,0%,0%);fill-opacity:1;stroke-width:0.55;stroke-linecap:butt;stroke-linejoin:round;stroke:rgb(0%,0%,0%);stroke-opacity:1;stroke-miterlimit:4;" d="M 151.703125 -39.714844 L 142.089844 -43.25 L 151.703125 -46.785156 C 150.167969 -44.695312 150.175781 -41.839844 151.703125 -39.714844 Z M 151.703125 -39.714844 " transform="matrix(0,1,-1,0,0,0)"/>
<path style="fill:none;stroke-width:0.4;stroke-linecap:butt;stroke-linejoin:miter;stroke:rgb(0%,0%,0%);stroke-opacity:1;stroke-miterlimit:4;" d="M 10.863281 171.550781 L 10.863281 15.152344 "/>
<path style="fill:none;stroke-width:0.46;stroke-linecap:square;stroke-linejoin:miter;stroke:rgb(0%,0%,0%);stroke-opacity:1;stroke-miterlimit:4;" d="M -171.550781 10.863281 L -170.75 10.863281 " transform="matrix(0,-1,1,0,0,0)"/>
<path style="fill-rule:evenodd;fill:rgb(0%,0%,0%);fill-opacity:1;stroke-width:0.4;stroke-linecap:butt;stroke-linejoin:miter;stroke:rgb(0%,0%,0%);stroke-opacity:1;stroke-miterlimit:4;" d="M -171.550781 10.863281 L -166.351562 12.464844 L -167.949219 10.863281 L -166.351562 9.261719 Z M -171.550781 10.863281 " transform="matrix(0,-1,1,0,0,0)"/>
<path style="fill:none;stroke-width:0.4;stroke-linecap:square;stroke-linejoin:miter;stroke:rgb(0%,0%,0%);stroke-opacity:1;stroke-miterlimit:4;" d="M -171.550781 9.261719 L -171.550781 26.863281 " transform="matrix(0,-1,1,0,0,0)"/>
<path style="fill:none;stroke-width:0.46;stroke-linecap:square;stroke-linejoin:miter;stroke:rgb(0%,0%,0%);stroke-opacity:1;stroke-miterlimit:4;" d="M -15.152344 10.863281 L -15.949219 10.863281 " transform="matrix(0,-1,1,0,0,0)"/>
<path style="fill-rule:evenodd;fill:rgb(0%,0%,0%);fill-opacity:1;stroke-width:0.4;stroke-linecap:butt;stroke-linejoin:miter;stroke:rgb(0%,0%,0%);stroke-opacity:1;stroke-miterlimit:4;" d="M -15.152344 10.863281 L -20.351562 12.464844 L -18.75 10.863281 L -20.351562 9.261719 Z M -15.152344 10.863281 " transform="matrix(0,-1,1,0,0,0)"/>
<path style="fill:none;stroke-width:0.4;stroke-linecap:square;stroke-linejoin:miter;stroke:rgb(0%,0%,0%);stroke-opacity:1;stroke-miterlimit:4;" d="M -15.152344 9.261719 L -15.152344 26.863281 " transform="matrix(0,-1,1,0,0,0)"/>
<path style="fill:none;stroke-width:0.4;stroke-linecap:butt;stroke-linejoin:miter;stroke:rgb(0%,0%,0%);stroke-opacity:1;stroke-miterlimit:4;" d="M 43.261719 14.351562 L 54.734375 7.726562 "/>
<path style="fill:none;stroke-width:0.4;stroke-linecap:butt;stroke-linejoin:miter;stroke:rgb(0%,0%,0%);stroke-opacity:1;stroke-miterlimit:4;" d="M 44.0625 172.75 L 57.425781 165.035156 "/>
<path style=" stroke:none;fill-rule:evenodd;fill:rgb(0%,0%,0%);fill-opacity:1;" d="M 64.542969 6.386719 L 64.527344 6.289062 L 64.507812 6.191406 L 64.484375 6.09375 L 64.457031 6 L 64.394531 5.8125 L 64.277344 5.542969 L 64.226562 5.460938 L 64.179688 5.375 L 64.128906 5.292969 L 64.070312 5.214844 L 64.015625 5.140625 L 63.953125 5.066406 L 63.882812 4.992188 L 63.816406 4.925781 L 63.746094 4.863281 L 63.589844 4.746094 L 63.507812 4.691406 L 63.417969 4.640625 L 63.332031 4.59375 L 63.234375 4.554688 L 63.140625 4.515625 L 63.039062 4.484375 L 62.933594 4.457031 L 62.828125 4.433594 L 62.71875 4.414062 L 62.484375 4.390625 L 62.359375 4.390625 L 62.359375 4.761719 C 64.210938 4.761719 64.242188 6.660156 64.242188 7 C 64.242188 8.21875 63.15625 12.03125 60.546875 12.03125 C 58.683594 12.03125 58.683594 10.28125 58.683594 10.121094 C 58.683594 9.65625 59.109375 7.285156 59.800781 6.273438 C 60.480469 5.304688 61.308594 4.761719 62.359375 4.761719 L 62.359375 4.390625 C 61.324219 4.390625 60.222656 4.660156 58.90625 5.984375 C 57.496094 7.386719 57.378906 8.964844 57.378906 9.492188 C 57.378906 10.539062 58.125 12.503906 60.496094 12.503906 C 64.53125 12.503906 66.292969 6.8125 66.292969 4.390625 C 66.292969 1.695312 64.714844 0 62.632812 0 C 60.175781 0 59.394531 2.199219 59.394531 2.675781 C 59.394531 2.910156 59.527344 3.269531 60.039062 3.269531 C 60.59375 3.269531 60.953125 2.761719 60.953125 2.371094 C 60.953125 1.777344 60.425781 1.777344 60.15625 1.777344 C 60.90625 0.527344 62.105469 0.425781 62.597656 0.425781 C 63.832031 0.425781 65.023438 1.304688 65.023438 3.488281 C 65.023438 4.148438 64.917969 5.015625 64.5625 6.386719 Z M 64.542969 6.386719 "/>
<path style=" stroke:none;fill-rule:evenodd;fill:rgb(0%,0%,0%);fill-opacity:1;" d="M 71.363281 0.625 L 71.367188 0.617188 L 71.367188 0.609375 L 71.371094 0.601562 L 71.371094 0.585938 L 71.375 0.578125 L 71.375 0.566406 L 71.378906 0.550781 L 71.382812 0.539062 L 71.382812 0.523438 L 71.386719 0.511719 L 71.386719 0.472656 L 71.390625 0.464844 L 71.390625 0.449219 L 71.394531 0.441406 L 71.394531 0.398438 L 71.398438 0.394531 L 71.398438 0.355469 C 71.398438 0.238281 71.363281 0.1875 71.210938 0.1875 C 71.023438 0.1875 70.515625 0.441406 70.179688 0.613281 C 69.398438 1 68.753906 1.324219 68.753906 1.625 C 68.753906 1.726562 68.871094 1.726562 68.941406 1.726562 C 69.144531 1.726562 69.585938 1.492188 69.910156 1.339844 C 69.703125 2.996094 69.296875 5.167969 68.992188 6.625 C 68.359375 9.507812 68.042969 10.539062 67.214844 12.1875 C 67.128906 12.335938 67.128906 12.371094 67.128906 12.386719 C 67.128906 12.503906 67.261719 12.503906 67.300781 12.503906 C 67.570312 12.503906 68.277344 12.203125 68.546875 11.726562 C 68.773438 11.335938 69.414062 10.097656 69.925781 8.132812 C 70.296875 6.675781 70.9375 4.460938 72.140625 2.710938 C 72.921875 1.609375 73.632812 1.097656 74.703125 1.097656 C 75.617188 1.097656 76.445312 1.695312 76.445312 2.59375 C 76.445312 4.082031 74.835938 4.621094 73.074219 5.21875 C 72.875 5.289062 71.703125 5.691406 71.703125 6.117188 C 71.703125 6.21875 71.824219 6.234375 71.871094 6.234375 C 71.941406 6.234375 72.335938 6.171875 72.6875 6.171875 C 74.398438 6.171875 75.785156 7.183594 75.785156 8.796875 C 75.785156 10.894531 73.992188 11.574219 72.449219 11.574219 C 71.144531 11.574219 70.515625 10.863281 70.296875 10.625 C 70.226562 10.539062 70.210938 10.507812 70.074219 10.507812 C 69.703125 10.507812 68.839844 11.035156 68.839844 11.335938 C 68.839844 11.386719 69.5 12.503906 71.328125 12.503906 C 73.71875 12.503906 77.230469 10.808594 77.230469 8.082031 C 77.230469 6.660156 76.277344 5.59375 74.546875 5.273438 C 75.90625 4.695312 77.886719 3.476562 77.886719 1.882812 C 77.886719 0.898438 77.074219 0.171875 75.820312 0.171875 C 75.246094 0.171875 73.074219 0.324219 71.023438 2.863281 Z M 71.363281 0.625 "/>
<path style=" stroke:none;fill-rule:evenodd;fill:rgb(0%,0%,0%);fill-opacity:1;" d="M 80.679688 9.980469 L 81.890625 9.980469 C 82.109375 9.980469 82.265625 9.980469 82.265625 9.722656 C 82.265625 9.554688 82.109375 9.554688 81.917969 9.554688 L 80.785156 9.554688 L 81.222656 7.804688 C 81.234375 7.742188 81.261719 7.683594 81.261719 7.636719 C 81.261719 7.417969 81.097656 7.253906 80.855469 7.253906 C 80.558594 7.253906 80.386719 7.457031 80.300781 7.765625 C 80.21875 8.0625 80.371094 7.492188 79.847656 9.554688 L 78.640625 9.554688 C 78.417969 9.554688 78.261719 9.554688 78.261719 9.816406 C 78.261719 9.980469 78.402344 9.980469 78.621094 9.980469 L 79.738281 9.980469 L 79.046875 12.777344 C 78.96875 13.074219 78.863281 13.5 78.863281 13.652344 C 78.863281 14.355469 79.460938 14.78125 80.132812 14.78125 C 81.449219 14.78125 82.195312 13.125 82.195312 12.96875 C 82.195312 12.8125 82.042969 12.8125 82.003906 12.8125 C 81.867188 12.8125 81.851562 12.839844 81.761719 13.039062 C 81.425781 13.785156 80.820312 14.449219 80.171875 14.449219 C 79.917969 14.449219 79.757812 14.296875 79.757812 13.871094 C 79.757812 13.75 79.804688 13.5 79.824219 13.382812 Z M 80.679688 9.980469 "/>
<path style=" stroke:none;fill-rule:evenodd;fill:rgb(0%,0%,0%);fill-opacity:1;" d="M 67.546875 160.789062 L 67.53125 160.691406 L 67.511719 160.589844 L 67.488281 160.496094 L 67.460938 160.398438 L 67.429688 160.304688 L 67.398438 160.214844 L 67.363281 160.121094 L 67.320312 160.03125 L 67.28125 159.945312 L 67.230469 159.859375 L 67.183594 159.773438 L 67.132812 159.691406 L 67.074219 159.613281 L 67.019531 159.539062 L 66.957031 159.464844 L 66.890625 159.394531 L 66.820312 159.324219 L 66.75 159.265625 L 66.671875 159.203125 L 66.59375 159.144531 L 66.511719 159.089844 L 66.421875 159.039062 L 66.335938 158.996094 L 66.238281 158.953125 L 66.144531 158.917969 L 66.042969 158.882812 L 65.941406 158.855469 L 65.832031 158.832031 L 65.722656 158.816406 L 65.605469 158.800781 L 65.488281 158.792969 L 65.363281 158.792969 L 65.363281 159.164062 C 67.214844 159.164062 67.246094 161.058594 67.246094 161.402344 C 67.246094 162.617188 66.160156 166.429688 63.550781 166.429688 C 61.6875 166.429688 61.6875 164.683594 61.6875 164.519531 C 61.6875 164.058594 62.113281 161.6875 62.808594 160.671875 C 63.484375 159.703125 64.3125 159.164062 65.363281 159.164062 L 65.363281 158.792969 C 64.328125 158.792969 63.230469 159.058594 61.910156 160.382812 C 60.5 161.789062 60.386719 163.367188 60.386719 163.894531 C 60.386719 164.9375 61.128906 166.902344 63.5 166.902344 C 67.535156 166.902344 69.296875 161.214844 69.296875 158.792969 C 69.296875 156.09375 67.71875 154.398438 65.636719 154.398438 C 63.179688 154.398438 62.398438 156.601562 62.398438 157.078125 C 62.398438 157.3125 62.53125 157.667969 63.042969 157.667969 C 63.597656 157.667969 63.957031 157.160156 63.957031 156.769531 C 63.957031 156.179688 63.429688 156.179688 63.160156 156.179688 C 63.910156 154.925781 65.109375 154.824219 65.601562 154.824219 C 66.835938 154.824219 68.027344 155.707031 68.027344 157.890625 C 68.027344 158.550781 67.921875 159.417969 67.566406 160.789062 Z M 67.546875 160.789062 "/>
<path style=" stroke:none;fill-rule:evenodd;fill:rgb(0%,0%,0%);fill-opacity:1;" d="M 74.367188 155.027344 L 74.371094 155.019531 L 74.371094 155.007812 L 74.375 155.003906 L 74.375 154.984375 L 74.378906 154.976562 L 74.378906 154.964844 L 74.382812 154.949219 L 74.386719 154.9375 L 74.386719 154.925781 L 74.390625 154.914062 L 74.390625 154.902344 L 74.394531 154.894531 L 74.394531 154.847656 L 74.398438 154.84375 L 74.398438 154.796875 L 74.402344 154.792969 L 74.402344 154.757812 C 74.402344 154.636719 74.367188 154.585938 74.214844 154.585938 C 74.027344 154.585938 73.519531 154.84375 73.183594 155.011719 C 72.402344 155.398438 71.761719 155.722656 71.761719 156.027344 C 71.761719 156.128906 71.875 156.128906 71.945312 156.128906 C 72.148438 156.128906 72.589844 155.894531 72.914062 155.738281 C 72.707031 157.398438 72.300781 159.566406 71.996094 161.027344 C 71.367188 163.90625 71.050781 164.9375 70.21875 166.585938 C 70.132812 166.734375 70.132812 166.773438 70.132812 166.789062 C 70.132812 166.902344 70.265625 166.902344 70.304688 166.902344 C 70.574219 166.902344 71.28125 166.601562 71.550781 166.125 C 71.777344 165.738281 72.417969 164.5 72.929688 162.53125 C 73.300781 161.074219 73.945312 158.859375 75.144531 157.109375 C 75.925781 156.007812 76.636719 155.5 77.710938 155.5 C 78.621094 155.5 79.449219 156.09375 79.449219 156.992188 C 79.449219 158.480469 77.84375 159.023438 76.078125 159.617188 C 75.878906 159.691406 74.710938 160.089844 74.710938 160.515625 C 74.710938 160.617188 74.828125 160.636719 74.875 160.636719 C 74.945312 160.636719 75.339844 160.570312 75.691406 160.570312 C 77.402344 160.570312 78.789062 161.585938 78.789062 163.195312 C 78.789062 165.296875 76.996094 165.976562 75.453125 165.976562 C 74.148438 165.976562 73.519531 165.265625 73.300781 165.023438 C 73.234375 164.9375 73.214844 164.90625 73.078125 164.90625 C 72.707031 164.90625 71.84375 165.433594 71.84375 165.738281 C 71.84375 165.789062 72.503906 166.902344 74.332031 166.902344 C 76.722656 166.902344 80.234375 165.210938 80.234375 162.480469 C 80.234375 161.058594 79.28125 159.992188 77.550781 159.671875 C 78.910156 159.09375 80.890625 157.875 80.890625 156.28125 C 80.890625 155.296875 80.078125 154.570312 78.824219 154.570312 C 78.25 154.570312 76.078125 154.722656 74.027344 157.265625 Z M 74.367188 155.027344 "/>
<path style=" stroke:none;fill-rule:evenodd;fill:rgb(0%,0%,0%);fill-opacity:1;" d="M 85.78125 167.144531 L 85.765625 167.191406 L 85.761719 167.21875 L 85.757812 167.242188 L 85.742188 167.296875 L 85.738281 167.324219 L 85.714844 167.40625 L 85.699219 167.464844 L 85.6875 167.523438 L 85.664062 167.605469 L 85.660156 167.628906 L 85.644531 167.675781 L 85.640625 167.699219 L 85.636719 167.71875 L 85.628906 167.742188 L 85.625 167.761719 L 85.617188 167.777344 L 85.613281 167.792969 L 85.609375 167.804688 L 85.605469 167.820312 L 85.605469 167.824219 L 85.601562 167.824219 L 85.601562 167.828125 L 85.597656 167.832031 L 85.597656 167.839844 L 85.59375 167.839844 C 85.367188 168.207031 84.894531 168.851562 84.160156 168.851562 C 83.339844 168.851562 83.339844 168.082031 83.339844 167.867188 C 83.339844 167.167969 83.667969 166.324219 84.003906 165.457031 C 84.101562 165.21875 84.167969 165.046875 84.167969 164.851562 C 84.167969 164.238281 83.648438 163.839844 83.042969 163.839844 C 81.859375 163.839844 81.324219 165.457031 81.324219 165.652344 C 81.324219 165.804688 81.492188 165.804688 81.527344 165.804688 C 81.691406 165.804688 81.703125 165.746094 81.738281 165.613281 C 82.023438 164.640625 82.550781 164.167969 83.003906 164.167969 C 83.207031 164.167969 83.304688 164.300781 83.304688 164.585938 C 83.304688 164.851562 83.207031 165.105469 83.089844 165.375 C 82.453125 167.011719 82.453125 167.355469 82.453125 167.675781 C 82.453125 167.878906 82.453125 168.425781 82.890625 168.800781 C 83.234375 169.085938 83.695312 169.179688 84.109375 169.179688 C 84.855469 169.179688 85.261719 168.773438 85.652344 168.402344 C 85.914062 169.160156 86.707031 169.179688 86.847656 169.179688 C 87.25 169.179688 87.558594 168.945312 87.785156 168.554688 C 88.042969 168.089844 88.210938 167.402344 88.210938 167.367188 C 88.210938 167.214844 88.042969 167.214844 88.011719 167.214844 C 87.84375 167.214844 87.832031 167.261719 87.746094 167.582031 C 87.609375 168.140625 87.378906 168.851562 86.886719 168.851562 C 86.578125 168.851562 86.492188 168.582031 86.492188 168.273438 C 86.492188 168.070312 86.585938 167.640625 86.671875 167.328125 C 86.75 167.011719 86.871094 166.53125 86.933594 166.269531 L 87.203125 165.210938 C 87.273438 164.914062 87.40625 164.390625 87.40625 164.332031 C 87.40625 164.097656 87.214844 163.953125 87.011719 163.953125 C 86.578125 163.953125 86.492188 164.300781 86.398438 164.679688 Z M 85.78125 167.144531 "/>
<path style=" stroke:none;fill-rule:evenodd;fill:rgb(0%,0%,0%);fill-opacity:1;" d="M 32.191406 35.046875 L 32.195312 35.039062 L 32.195312 35.03125 L 32.199219 35.023438 L 32.199219 35.007812 L 32.203125 35 L 32.203125 34.984375 L 32.207031 34.972656 L 32.210938 34.957031 L 32.210938 34.945312 L 32.214844 34.933594 L 32.214844 34.894531 L 32.21875 34.886719 L 32.21875 34.863281 L 32.222656 34.855469 L 32.222656 34.816406 L 32.226562 34.804688 L 32.226562 34.777344 C 32.226562 34.660156 32.191406 34.609375 32.039062 34.609375 C 31.851562 34.609375 31.34375 34.863281 31.007812 35.03125 C 30.226562 35.421875 29.582031 35.742188 29.582031 36.046875 C 29.582031 36.148438 29.699219 36.148438 29.769531 36.148438 C 29.972656 36.148438 30.414062 35.914062 30.738281 35.761719 C 30.53125 37.417969 30.125 39.585938 29.820312 41.046875 C 29.1875 43.929688 28.871094 44.957031 28.042969 46.609375 C 27.957031 46.753906 27.957031 46.792969 27.957031 46.808594 C 27.957031 46.925781 28.089844 46.925781 28.128906 46.925781 C 28.398438 46.925781 29.105469 46.621094 29.375 46.144531 C 29.601562 45.757812 30.242188 44.519531 30.753906 42.554688 C 31.125 41.09375 31.769531 38.878906 32.96875 37.132812 C 33.75 36.03125 34.460938 35.519531 35.535156 35.519531 C 36.445312 35.519531 37.273438 36.113281 37.273438 37.011719 C 37.273438 38.503906 35.664062 39.042969 33.902344 39.640625 C 33.703125 39.710938 32.53125 40.113281 32.53125 40.535156 C 32.53125 40.640625 32.652344 40.65625 32.699219 40.65625 C 32.769531 40.65625 33.164062 40.589844 33.515625 40.589844 C 35.226562 40.589844 36.613281 41.605469 36.613281 43.21875 C 36.613281 45.316406 34.820312 45.996094 33.277344 45.996094 C 31.972656 45.996094 31.34375 45.285156 31.125 45.042969 C 31.058594 44.957031 31.039062 44.929688 30.902344 44.929688 C 30.53125 44.929688 29.667969 45.457031 29.667969 45.757812 C 29.667969 45.808594 30.328125 46.925781 32.15625 46.925781 C 34.546875 46.925781 38.058594 45.230469 38.058594 42.503906 C 38.058594 41.082031 37.105469 40.011719 35.375 39.691406 C 36.734375 39.113281 38.714844 37.898438 38.714844 36.300781 C 38.714844 35.320312 37.902344 34.589844 36.648438 34.589844 C 36.074219 34.589844 33.902344 34.742188 31.851562 37.285156 Z M 32.191406 35.046875 "/>
<path style=" stroke:none;fill-rule:evenodd;fill:rgb(0%,0%,0%);fill-opacity:1;" d="M 67.566406 108.945312 L 67.570312 108.941406 L 67.574219 108.929688 L 67.578125 108.914062 L 67.585938 108.894531 L 67.601562 108.863281 L 67.605469 108.84375 L 67.613281 108.828125 L 67.617188 108.8125 L 67.621094 108.800781 L 67.625 108.792969 L 67.628906 108.789062 L 67.628906 108.769531 L 67.632812 108.761719 L 67.636719 108.757812 L 67.636719 108.75 L 67.640625 108.742188 L 67.640625 108.734375 L 67.644531 108.734375 L 67.644531 108.710938 L 67.648438 108.707031 C 67.648438 108.691406 67.648438 108.523438 67.445312 108.523438 C 67.289062 108.523438 67.257812 108.625 67.226562 108.730469 C 66.121094 111.238281 65.496094 112.367188 62.597656 112.367188 L 60.125 112.367188 C 59.886719 112.367188 59.855469 112.367188 59.753906 112.355469 C 59.582031 112.339844 59.53125 112.320312 59.53125 112.183594 C 59.53125 112.136719 59.53125 112.101562 59.617188 111.796875 L 60.769531 107.167969 L 62.445312 107.167969 C 63.890625 107.167969 63.890625 107.523438 63.890625 107.945312 C 63.890625 108.066406 63.890625 108.273438 63.765625 108.777344 C 63.734375 108.863281 63.71875 108.917969 63.71875 108.964844 C 63.71875 109.050781 63.785156 109.152344 63.9375 109.152344 C 64.074219 109.152344 64.125 109.066406 64.191406 108.8125 L 65.15625 104.84375 C 65.15625 104.742188 65.074219 104.65625 64.949219 104.65625 C 64.804688 104.65625 64.765625 104.757812 64.71875 104.96875 C 64.363281 106.253906 64.050781 106.640625 62.496094 106.640625 L 60.902344 106.640625 L 61.921875 102.558594 C 62.070312 101.964844 62.09375 101.898438 62.835938 101.898438 L 65.222656 101.898438 C 67.289062 101.898438 67.800781 102.390625 67.800781 103.78125 C 67.800781 104.183594 67.800781 104.21875 67.734375 104.679688 C 67.734375 104.78125 67.714844 104.898438 67.714844 104.984375 C 67.714844 105.070312 67.765625 105.183594 67.917969 105.183594 C 68.105469 105.183594 68.125 105.082031 68.15625 104.757812 L 68.5 101.832031 C 68.546875 101.375 68.464844 101.375 68.039062 101.375 L 59.484375 101.375 C 59.144531 101.375 58.972656 101.375 58.972656 101.714844 C 58.972656 101.898438 59.125 101.898438 59.445312 101.898438 C 60.074219 101.898438 60.546875 101.898438 60.546875 102.203125 C 60.546875 102.273438 60.546875 102.304688 60.460938 102.613281 L 58.230469 111.574219 C 58.058594 112.234375 58.019531 112.367188 56.679688 112.367188 C 56.394531 112.367188 56.207031 112.367188 56.207031 112.695312 C 56.207031 112.894531 56.359375 112.894531 56.679688 112.894531 L 65.476562 112.894531 C 65.871094 112.894531 65.886719 112.878906 66.003906 112.609375 Z M 67.566406 108.945312 "/>
<path style=" stroke:none;fill-rule:evenodd;fill:rgb(0%,0%,0%);fill-opacity:1;" d="M 72.472656 112.878906 L 72.472656 112.777344 L 72.46875 112.675781 L 72.453125 112.480469 L 72.445312 112.390625 L 72.429688 112.300781 L 72.417969 112.210938 L 72.394531 112.132812 L 72.378906 112.050781 L 72.332031 111.894531 L 72.304688 111.824219 L 72.277344 111.757812 L 72.246094 111.691406 L 72.214844 111.628906 L 72.183594 111.570312 L 72.105469 111.460938 L 72.027344 111.367188 L 71.980469 111.324219 L 71.839844 111.21875 L 71.789062 111.191406 L 71.738281 111.167969 L 71.628906 111.128906 L 71.511719 111.105469 L 71.449219 111.105469 L 71.390625 111.101562 C 70.832031 111.101562 70.492188 111.527344 70.492188 112 C 70.492188 112.453125 70.832031 112.894531 71.390625 112.894531 C 71.589844 112.894531 71.816406 112.828125 71.984375 112.679688 C 72.03125 112.640625 72.054688 112.625 72.070312 112.625 C 72.085938 112.625 72.101562 112.640625 72.101562 112.878906 C 72.101562 114.132812 71.511719 115.152344 70.949219 115.710938 C 70.761719 115.894531 70.761719 115.929688 70.761719 115.976562 C 70.761719 116.101562 70.847656 116.164062 70.933594 116.164062 C 71.117188 116.164062 72.472656 114.863281 72.472656 112.878906 Z M 72.472656 112.878906 "/>
<path style=" stroke:none;fill-rule:evenodd;fill:rgb(0%,0%,0%);fill-opacity:1;" d="M 79.582031 110.945312 L 79.515625 111.050781 L 79.453125 111.148438 L 79.390625 111.242188 L 79.324219 111.332031 L 79.261719 111.417969 L 79.199219 111.496094 L 79.136719 111.570312 L 79.070312 111.640625 L 79.007812 111.710938 L 78.945312 111.769531 L 78.878906 111.828125 L 78.820312 111.882812 L 78.753906 111.933594 L 78.6875 111.980469 L 78.625 112.027344 L 78.558594 112.066406 L 78.5 112.105469 L 78.433594 112.136719 L 78.371094 112.167969 L 78.300781 112.199219 L 78.238281 112.222656 L 78.171875 112.246094 L 78.109375 112.269531 L 78.039062 112.289062 L 77.976562 112.304688 L 77.90625 112.316406 L 77.839844 112.332031 L 77.769531 112.339844 L 77.636719 112.359375 L 77.496094 112.367188 C 77.289062 112.386719 77.140625 112.386719 77.140625 112.710938 C 77.140625 112.8125 77.226562 112.894531 77.359375 112.894531 C 77.816406 112.894531 78.34375 112.84375 78.816406 112.84375 C 79.371094 112.84375 79.96875 112.894531 80.507812 112.894531 C 80.609375 112.894531 80.832031 112.894531 80.832031 112.574219 C 80.832031 112.386719 80.679688 112.367188 80.5625 112.367188 C 80.167969 112.339844 79.765625 112.199219 79.765625 111.78125 C 79.765625 111.574219 79.867188 111.386719 80 111.15625 L 81.292969 108.980469 L 85.542969 108.980469 L 85.496094 108.457031 L 81.609375 108.457031 L 84.953125 102.863281 L 85.496094 108.457031 L 85.542969 108.980469 C 85.582031 109.335938 85.816406 111.640625 85.816406 111.8125 C 85.816406 112.320312 84.929688 112.367188 84.597656 112.367188 C 84.355469 112.367188 84.1875 112.367188 84.1875 112.710938 C 84.1875 112.894531 84.390625 112.894531 84.425781 112.894531 C 85.117188 112.894531 85.847656 112.84375 86.542969 112.84375 C 86.96875 112.84375 88.035156 112.894531 88.460938 112.894531 C 88.5625 112.894531 88.765625 112.894531 88.765625 112.554688 C 88.765625 112.367188 88.59375 112.367188 88.375 112.367188 C 87.324219 112.367188 87.324219 112.253906 87.269531 111.761719 L 86.242188 101.171875 C 86.203125 100.832031 86.203125 100.761719 85.914062 100.761719 C 85.644531 100.761719 85.582031 100.878906 85.476562 101.046875 Z M 79.582031 110.945312 "/>
<path style=" stroke:none;fill-rule:evenodd;fill:rgb(0%,0%,0%);fill-opacity:1;" d="M 92.675781 112.878906 L 92.675781 112.777344 L 92.671875 112.675781 L 92.667969 112.578125 L 92.65625 112.480469 L 92.632812 112.300781 L 92.617188 112.210938 L 92.601562 112.132812 L 92.582031 112.050781 L 92.5625 111.972656 L 92.535156 111.894531 L 92.511719 111.824219 L 92.480469 111.757812 L 92.453125 111.691406 L 92.417969 111.628906 L 92.382812 111.570312 L 92.347656 111.515625 L 92.308594 111.460938 L 92.269531 111.414062 L 92.226562 111.367188 L 92.183594 111.324219 L 92.140625 111.289062 L 92.089844 111.253906 L 92.042969 111.21875 L 91.992188 111.191406 L 91.9375 111.167969 L 91.828125 111.128906 L 91.773438 111.117188 L 91.714844 111.105469 L 91.652344 111.105469 L 91.589844 111.101562 C 91.035156 111.101562 90.695312 111.527344 90.695312 112 C 90.695312 112.453125 91.035156 112.894531 91.589844 112.894531 C 91.796875 112.894531 92.015625 112.828125 92.1875 112.679688 C 92.234375 112.640625 92.257812 112.625 92.273438 112.625 C 92.289062 112.625 92.304688 112.640625 92.304688 112.878906 C 92.304688 114.132812 91.714844 115.152344 91.152344 115.710938 C 90.964844 115.894531 90.964844 115.929688 90.964844 115.976562 C 90.964844 116.101562 91.050781 116.164062 91.136719 116.164062 C 91.324219 116.164062 92.675781 114.863281 92.675781 112.878906 Z M 92.675781 112.878906 "/>
<g clip-path="url(#clip4)" clip-rule="nonzero">
<path style=" stroke:none;fill-rule:evenodd;fill:rgb(0%,0%,0%);fill-opacity:1;" d="M 97.304688 115.832031 L 97.300781 115.839844 L 97.300781 115.867188 L 97.292969 115.882812 L 97.292969 115.890625 L 97.289062 115.898438 L 97.289062 115.90625 L 97.285156 115.914062 L 97.285156 115.925781 L 97.28125 115.933594 L 97.28125 115.941406 L 97.277344 115.953125 L 97.277344 115.976562 L 97.273438 115.984375 L 97.269531 115.996094 L 97.269531 116.003906 L 97.265625 116.011719 L 97.265625 116.027344 L 97.261719 116.035156 L 97.261719 116.054688 L 97.257812 116.0625 L 97.257812 116.101562 C 97.257812 116.351562 97.445312 116.558594 97.730469 116.558594 C 98.089844 116.558594 98.289062 116.25 98.328125 116.203125 C 98.40625 116.050781 98.953125 113.777344 99.410156 111.945312 C 99.746094 112.625 100.289062 113.082031 101.085938 113.082031 L 101.066406 112.710938 C 99.882812 112.710938 99.613281 111.355469 99.613281 111.203125 C 99.613281 111.128906 99.699219 110.796875 99.746094 110.574219 C 100.226562 108.675781 100.394531 108.066406 100.765625 107.390625 C 101.492188 106.152344 102.339844 105.78125 102.863281 105.78125 C 103.492188 105.78125 104.035156 106.269531 104.035156 107.4375 C 104.035156 108.371094 103.542969 110.269531 103.089844 111.101562 C 102.523438 112.167969 101.710938 112.710938 101.066406 112.710938 L 101.085938 113.082031 C 103.066406 113.082031 105.253906 110.691406 105.253906 108.164062 C 105.253906 106.367188 104.136719 105.410156 102.898438 105.410156 C 101.253906 105.410156 99.472656 107.101562 98.96875 109.171875 Z M 97.304688 115.832031 "/>
</g>
<path style="fill:none;stroke-width:0.4;stroke-linecap:butt;stroke-linejoin:miter;stroke:rgb(0%,0%,0%);stroke-opacity:1;stroke-miterlimit:4;" d="M 42.464844 126.351562 L 58.019531 117.371094 "/>
<path style=" stroke:none;fill-rule:evenodd;fill:rgb(0%,0%,0%);fill-opacity:1;" d="M 79.214844 41.050781 L 79.21875 41.03125 L 79.21875 41.015625 L 79.222656 41 L 79.226562 40.976562 L 79.234375 40.945312 L 79.238281 40.925781 L 79.246094 40.90625 L 79.246094 40.890625 L 79.25 40.867188 L 79.253906 40.851562 L 79.253906 40.832031 L 79.257812 40.8125 L 79.257812 40.789062 L 79.261719 40.78125 L 79.261719 40.75 C 79.261719 40.457031 79.0625 40.289062 78.773438 40.289062 C 78.601562 40.289062 78.144531 40.410156 78.074219 41.023438 C 77.769531 40.394531 77.175781 39.953125 76.503906 39.953125 L 76.519531 40.324219 C 77.636719 40.324219 77.875 41.695312 77.875 41.78125 C 77.875 41.867188 77.84375 41.96875 77.820312 42.035156 L 77.007812 45.273438 C 76.90625 45.710938 76.519531 46.132812 76.144531 46.457031 C 75.792969 46.761719 75.265625 47.070312 74.769531 47.070312 C 73.925781 47.070312 73.667969 46.1875 73.667969 45.511719 C 73.667969 44.691406 74.164062 42.695312 74.621094 41.835938 C 75.078125 41 75.804688 40.324219 76.519531 40.324219 L 76.503906 39.953125 C 74.566406 39.953125 72.46875 42.320312 72.46875 44.765625 C 72.46875 46.441406 73.5 47.441406 74.722656 47.441406 C 75.71875 47.441406 76.519531 46.644531 76.691406 46.457031 L 76.703125 46.476562 C 76.347656 47.980469 76.144531 48.679688 76.144531 48.714844 C 76.078125 48.867188 75.503906 50.546875 73.707031 50.546875 C 73.382812 50.546875 72.824219 50.523438 72.347656 50.375 C 72.855469 50.21875 73.042969 49.78125 73.042969 49.492188 C 73.042969 49.222656 72.855469 48.898438 72.398438 48.898438 C 72.027344 48.898438 71.484375 49.207031 71.484375 49.878906 C 71.484375 50.578125 72.109375 50.917969 73.738281 50.917969 C 75.851562 50.917969 77.078125 49.59375 77.332031 48.578125 Z M 79.214844 41.050781 "/>
<path style=" stroke:none;fill-rule:evenodd;fill:rgb(0%,0%,0%);fill-opacity:1;" d="M 3.628906 86.191406 L 3.628906 86.175781 L 3.625 86.167969 L 3.625 86.152344 L 3.621094 86.148438 L 3.621094 86.132812 L 3.617188 86.125 L 3.617188 86.117188 L 3.609375 86.109375 L 3.605469 86.097656 L 3.601562 86.09375 L 3.59375 86.082031 L 3.589844 86.074219 L 3.582031 86.070312 L 3.574219 86.058594 L 3.5625 86.046875 L 3.558594 86.046875 L 3.550781 86.042969 L 3.542969 86.035156 L 3.527344 86.027344 L 3.523438 86.023438 L 3.515625 86.023438 L 3.511719 86.019531 L 3.492188 86.019531 L 3.488281 86.015625 L 3.480469 86.011719 L 3.460938 86.011719 L 3.457031 86.007812 L 3.4375 86.007812 L 3.425781 86.003906 L 3.40625 86.003906 C 3.015625 86.003906 1.777344 86.144531 1.335938 86.175781 C 1.203125 86.191406 1.019531 86.207031 1.019531 86.53125 C 1.019531 86.71875 1.183594 86.71875 1.4375 86.71875 C 2.25 86.71875 2.273438 86.871094 2.273438 87.003906 L 2.222656 87.34375 L 0.0859375 95.816406 C 0.0390625 96 0 96.125 0 96.394531 C 0 97.359375 0.75 97.953125 1.539062 97.953125 C 2.101562 97.953125 2.523438 97.613281 2.816406 97.007812 C 3.121094 96.359375 3.320312 95.375 3.320312 95.34375 C 3.320312 95.175781 3.171875 95.175781 3.121094 95.175781 C 2.949219 95.175781 2.933594 95.242188 2.882812 95.480469 C 2.59375 96.582031 2.273438 97.578125 1.59375 97.578125 C 1.082031 97.578125 1.082031 97.039062 1.082031 96.800781 C 1.082031 96.394531 1.105469 96.3125 1.183594 95.988281 Z M 3.628906 86.191406 "/>
<path style=" stroke:none;fill-rule:evenodd;fill:rgb(0%,0%,0%);fill-opacity:1;" d="M 32.140625 152.65625 L 32.148438 152.609375 L 32.164062 152.558594 L 32.175781 152.503906 L 32.191406 152.445312 L 32.210938 152.378906 L 32.230469 152.308594 L 32.253906 152.234375 L 32.277344 152.15625 L 32.304688 152.078125 L 32.332031 151.996094 L 32.402344 151.832031 L 32.4375 151.746094 L 32.523438 151.574219 L 32.570312 151.492188 L 32.621094 151.410156 L 32.675781 151.328125 L 32.730469 151.25 L 32.855469 151.101562 L 32.921875 151.03125 L 32.992188 150.96875 L 33.070312 150.90625 L 33.148438 150.851562 L 33.230469 150.804688 L 33.273438 150.78125 L 33.316406 150.761719 L 33.363281 150.742188 L 33.410156 150.726562 L 33.457031 150.707031 L 33.503906 150.695312 L 33.554688 150.683594 L 33.65625 150.667969 L 33.710938 150.660156 L 33.765625 150.65625 L 33.820312 150.65625 C 33.90625 150.65625 34.308594 150.65625 34.664062 150.875 C 34.191406 150.960938 33.851562 151.386719 33.851562 151.789062 C 33.851562 152.058594 34.039062 152.386719 34.492188 152.386719 C 34.867188 152.386719 35.410156 152.082031 35.410156 151.402344 C 35.410156 150.519531 34.410156 150.285156 33.832031 150.285156 C 32.851562 150.285156 32.253906 151.183594 32.054688 151.574219 C 31.628906 150.457031 30.714844 150.285156 30.226562 150.285156 C 28.460938 150.285156 27.492188 152.472656 27.492188 152.894531 C 27.492188 153.066406 27.664062 153.066406 27.699219 153.066406 C 27.832031 153.066406 27.886719 153.027344 27.917969 152.878906 C 28.492188 151.082031 29.617188 150.65625 30.191406 150.65625 C 30.515625 150.65625 31.101562 150.808594 31.101562 151.789062 C 31.101562 152.3125 30.816406 153.453125 30.191406 155.824219 C 29.917969 156.875 29.328125 157.585938 28.578125 157.585938 C 28.476562 157.585938 28.089844 157.585938 27.734375 157.367188 C 28.160156 157.285156 28.53125 156.929688 28.53125 156.449219 C 28.53125 155.996094 28.160156 155.863281 27.90625 155.863281 C 27.394531 155.863281 26.96875 156.300781 26.96875 156.84375 C 26.96875 157.621094 27.820312 157.960938 28.5625 157.960938 C 29.683594 157.960938 30.289062 156.773438 30.34375 156.675781 C 30.542969 157.300781 31.15625 157.960938 32.171875 157.960938 C 33.917969 157.960938 34.886719 155.777344 34.886719 155.351562 C 34.886719 155.183594 34.734375 155.183594 34.679688 155.183594 C 34.53125 155.183594 34.492188 155.25 34.464844 155.367188 C 33.90625 157.179688 32.753906 157.585938 32.207031 157.585938 C 31.542969 157.585938 31.273438 157.046875 31.273438 156.46875 C 31.273438 156.09375 31.375 155.722656 31.566406 154.976562 Z M 32.140625 152.65625 "/>
</g>
</svg>
